<?xml version="1.0" encoding="UTF-8"?>
<svg version="1.1" xmlns="http://www.w3.org/2000/svg" width="1536" height="1536">
<path d="M0 0 C2.25 0 2.25 0 5 1 C7.88290357 4.94211734 9.61693246 9.06454033 9 14 C9.66 14 10.32 14 11 14 C11.495 17.465 11.495 17.465 12 21 C12.66 21 13.32 21 14 21 C14.25394531 21.80824219 14.50789062 22.61648437 14.76953125 23.44921875 C15.11371094 24.51785156 15.45789063 25.58648437 15.8125 26.6875 C16.14894531 27.74324219 16.48539063 28.79898438 16.83203125 29.88671875 C17.89621536 33.00816868 17.89621536 33.00816868 19.59375 35.65625 C21.42394898 38.70658163 21.6563935 41.49521375 22 45 C22.66 45 23.32 45 24 45 C24.495 48.96 24.495 48.96 25 53 C25.66 53 26.32 53 27 53 C27.34611328 53.98226562 27.34611328 53.98226562 27.69921875 54.984375 C31.82583824 66.79943866 31.82583824 66.79943866 37.1484375 78.09765625 C38 80 38 80 38 84 C38.66 84 39.32 84 40 84 C40.2475 84.78375 40.495 85.5675 40.75 86.375 C42.90452587 92.62312502 45.38008134 98.70514606 48.1875 104.6875 C49.91907813 108.50376239 50.64542349 111.83372598 51 116 C51.66 116 52.32 116 53 116 C58.9381696 130.75894579 58.9381696 130.75894579 60.75 135.6875 C61.87427795 138.87485617 61.87427795 138.87485617 63.1875 141.25 C64 143 64 143 64 147 C64.66 147 65.32 147 66 147 C66.26554688 147.74765625 66.53109375 148.4953125 66.8046875 149.265625 C67.15789062 150.25046875 67.51109375 151.2353125 67.875 152.25 C68.22304688 153.22453125 68.57109375 154.1990625 68.9296875 155.203125 C69.90647981 157.93297895 69.90647981 157.93297895 71.1328125 160.109375 C72 162 72 162 72 166 C72.66 166 73.32 166 74 166 C74.50833591 167.24663331 75.00631145 168.49749387 75.5 169.75 C75.7784375 170.44609375 76.056875 171.1421875 76.34375 171.859375 C77 174 77 174 77 178 C77.66 178 78.32 178 79 178 C79.37511719 179.02738281 79.75023437 180.05476562 80.13671875 181.11328125 C82.85280326 188.48576539 85.63352492 195.71066053 89.1171875 202.765625 C90 205 90 205 90 209 C90.66 209 91.32 209 92 209 C92.33 211.64 92.66 214.28 93 217 C93.66 217 94.32 217 95 217 C95.50615298 218.26839526 96.00469099 219.53983102 96.5 220.8125 C96.91765625 221.87404297 96.91765625 221.87404297 97.34375 222.95703125 C98 225 98 225 98 228 C98.66 228 99.32 228 100 228 C100.34611328 228.98226562 100.34611328 228.98226562 100.69921875 229.984375 C102.90665597 236.1617092 105.29507949 242.2323216 107.8515625 248.2734375 C108.23054687 249.17320312 108.60953125 250.07296875 109 251 C109.37898437 251.87914062 109.75796875 252.75828125 110.1484375 253.6640625 C111 256 111 256 111 259 C111.66 259 112.32 259 113 259 C114.00858422 261.41339796 115.00702673 263.83018675 116 266.25 C116.42925781 267.27287109 116.42925781 267.27287109 116.8671875 268.31640625 C118.29345494 271.81415735 119 274.16900189 119 278 C119.66 278 120.32 278 121 278 C121.24234375 278.70125 121.4846875 279.4025 121.734375 280.125 C123.35191663 284.70388708 124.97540685 289.14014365 127.25 293.4375 C129 297 129 297 129 301 C129.66 301 130.32 301 131 301 C131.24234375 301.70125 131.4846875 302.4025 131.734375 303.125 C133.33066155 307.64371885 134.91586843 312.02293466 137.1875 316.25 C139.08759045 319.85644619 139.66250084 322.95001003 140 327 C140.66 327 141.32 327 142 327 C142.50615298 328.26839526 143.00469099 329.53983102 143.5 330.8125 C143.91765625 331.87404297 143.91765625 331.87404297 144.34375 332.95703125 C145 335 145 335 145 338 C145.66 338 146.32 338 147 338 C147.24234375 338.70125 147.4846875 339.4025 147.734375 340.125 C149.35191663 344.70388708 150.97540685 349.14014365 153.25 353.4375 C155 357 155 357 155 361 C155.66 361 156.32 361 157 361 C158.0063655 363.43504509 159.00526413 365.87270864 160 368.3125 C160.28617188 369.00279297 160.57234375 369.69308594 160.8671875 370.40429688 C162.08910744 373.41545674 163 375.71886984 163 379 C163.66 379 164.32 379 165 379 C165.82065069 380.87144695 166.6311584 382.74734336 167.4375 384.625 C167.88996094 385.66914063 168.34242188 386.71328125 168.80859375 387.7890625 C169.95801705 390.88685251 170.57311223 393.73210054 171 397 C171.66 397 172.32 397 173 397 C173.50615298 398.26839526 174.00469099 399.53983102 174.5 400.8125 C174.91765625 401.87404297 174.91765625 401.87404297 175.34375 402.95703125 C176 405 176 405 176 408 C176.66 408 177.32 408 178 408 C179.33333333 411.33333333 180.66666667 414.66666667 182 418 C182.56074219 419.30904297 182.56074219 419.30904297 183.1328125 420.64453125 C184 423 184 423 184 426 C184.66 426 185.32 426 186 426 C186.26554687 426.67546875 186.53109375 427.3509375 186.8046875 428.046875 C187.33449219 429.38492188 187.33449219 429.38492188 187.875 430.75 C188.22304688 431.63171875 188.57109375 432.5134375 188.9296875 433.421875 C189.92857332 435.95582782 189.92857332 435.95582782 191.1328125 438.078125 C192 440 192 440 192 444 C192.66 444 193.32 444 194 444 C199.55580866 455.52164009 199.55580866 455.52164009 200 461 C200.66 461 201.32 461 202 461 C202 462.32 202 463.64 202 465 C202.66 465 203.32 465 204 465 C204.24234375 465.6290625 204.4846875 466.258125 204.734375 466.90625 C206.38677727 471.12623119 208.06681325 475.241669 210.1875 479.25 C211.85402958 482.46542178 212.63654258 485.36542581 213 489 C213.66 489 214.32 489 215 489 C218 495.625 218 495.625 218 499 C218.66 499 219.32 499 220 499 C221.1492567 501.74861395 222.29451341 504.49877984 223.4375 507.25 C223.76298828 508.02730469 224.08847656 508.80460937 224.42382812 509.60546875 C224.73642578 510.35957031 225.04902344 511.11367188 225.37109375 511.890625 C225.65911865 512.58188477 225.94714355 513.27314453 226.24389648 513.98535156 C226.98946031 515.97191686 227.52784696 517.93306394 228 520 C228.66 520 229.32 520 230 520 C230.23074219 520.61746094 230.46148438 521.23492188 230.69921875 521.87109375 C232.75551128 527.21095223 235.05646408 532.1102516 238.046875 536.9921875 C239 539 239 539 239 543 C239.66 543 240.32 543 241 543 C241.37511719 543.82242188 241.75023437 544.64484375 242.13671875 545.4921875 C244.54240323 550.73985188 246.95404167 555.97454087 249.5625 561.125 C251.36706887 564.70484278 253.11736684 568.30439157 254.8125 571.9375 C255.44091797 573.28134766 255.44091797 573.28134766 256.08203125 574.65234375 C257 577 257 577 257 580 C257.66 580 258.32 580 259 580 C259.33 581.98 259.66 583.96 260 586 C260.66 586 261.32 586 262 586 C265 592.625 265 592.625 265 596 C265.66 596 266.32 596 267 596 C267.8464681 597.6929362 268.69292118 599.38587991 269.53930664 601.07885742 C270.27000389 602.54008762 271.00096581 604.00118549 271.73217773 605.4621582 C273.36783797 608.73097275 275.00050483 612.00102061 276.62109375 615.27734375 C278.66076009 619.39536929 280.70936609 623.49736911 282.92578125 627.5234375 C283.2498999 628.11358643 283.57401855 628.70373535 283.90795898 629.31176758 C284.82558969 630.9730475 285.75238355 632.62925635 286.6796875 634.28515625 C288 637 288 637 288 640 C288.66 640 289.32 640 290 640 C290.33 641.98 290.66 643.96 291 646 C291.66 646 292.32 646 293 646 C293.33 648.31 293.66 650.62 294 653 C294.66 653 295.32 653 296 653 C296 653.99 296 654.98 296 656 C296.66 656 297.32 656 298 656 C299.00732399 657.93370231 300.00563288 659.87210306 301 661.8125 C301.556875 662.89144531 302.11375 663.97039063 302.6875 665.08203125 C304 668 304 668 304 671 C304.66 671 305.32 671 306 671 C306.33 672.98 306.66 674.96 307 677 C307.66 677 308.32 677 309 677 C309.5775 678.175625 310.155 679.35125 310.75 680.5625 C312.15053768 683.38358304 313.63321774 686.11016393 315.25 688.8125 C317 692 317 692 317 695 C317.66 695 318.32 695 319 695 C319.33 696.98 319.66 698.96 320 701 C320.66 701 321.32 701 322 701 C322 702.32 322 703.64 322 705 C322.66 705 323.32 705 324 705 C324.33 706.65 324.66 708.3 325 710 C325.66 710 326.32 710 327 710 C330 715.625 330 715.625 330 719 C330.66 719 331.32 719 332 719 C333.00732399 720.93370231 334.00563288 722.87210306 335 724.8125 C335.556875 725.89144531 336.11375 726.97039063 336.6875 728.08203125 C338 731 338 731 338 734 C338.66 734 339.32 734 340 734 C341.15082685 736.24756784 342.29576858 738.49781748 343.4375 740.75 C343.76298828 741.38421875 344.08847656 742.0184375 344.42382812 742.671875 C345.97063665 745.73359908 347.3915078 748.60615621 348 752 C348.66 752 349.32 752 350 752 C350.33 753.65 350.66 755.3 351 757 C351.66 757 352.32 757 353 757 C353.33 758.98 353.66 760.96 354 763 C354.66 763 355.32 763 356 763 C356 763.99 356 764.98 356 766 C356.66 766 357.32 766 358 766 C359.00484204 767.95585325 360.00373805 769.91476237 361 771.875 C361.556875 772.96554687 362.11375 774.05609375 362.6875 775.1796875 C364 778 364 778 364 780 C364.66 780 365.32 780 366 780 C366.33 781.98 366.66 783.96 367 786 C367.66 786 368.32 786 369 786 C369 786.99 369 787.98 369 789 C369.66 789 370.32 789 371 789 C371.33 790.65 371.66 792.3 372 794 C372.66 794 373.32 794 374 794 C375.0076952 795.7664657 376.00591714 797.53833823 377 799.3125 C377.556875 800.29863281 378.11375 801.28476562 378.6875 802.30078125 C380 805 380 805 380 808 C380.66 808 381.32 808 382 808 C382 809.32 382 810.64 382 812 C382.66 812 383.32 812 384 812 C384.33 813.65 384.66 815.3 385 817 C385.66 817 386.32 817 387 817 C388.0076952 818.7664657 389.00591714 820.53833823 390 822.3125 C390.556875 823.29863281 391.11375 824.28476562 391.6875 825.30078125 C393 828 393 828 393 831 C393.66 831 394.32 831 395 831 C397.04169485 833.90548882 398 835.40142046 398 839 C398.66 839 399.32 839 400 839 C400.33 840.65 400.66 842.3 401 844 C401.66 844 402.32 844 403 844 C409.51936219 855.52164009 409.51936219 855.52164009 411 861 C411.66 861 412.32 861 413 861 C413.33 862.98 413.66 864.96 414 867 C414.66 867 415.32 867 416 867 C418.04169485 869.90548882 419 871.40142046 419 875 C419.66 875 420.32 875 421 875 C423.04169485 877.90548882 424 879.40142046 424 883 C424.66 883 425.32 883 426 883 C426.33 884.65 426.66 886.3 427 888 C427.66 888 428.32 888 429 888 C431.04169485 890.90548882 432 892.40142046 432 896 C432.66 896 433.32 896 434 896 C434.32871094 896.62003906 434.65742187 897.24007812 434.99609375 897.87890625 C438.07251576 903.60655373 441.28216835 909.23742349 444.625 914.8125 C444.99681396 915.43390869 445.36862793 916.05531738 445.75170898 916.69555664 C447.51120196 919.61346387 449.29649642 922.41723465 451.2734375 925.19921875 C453 928 453 928 453 932 C453.639375 932.20625 454.27875 932.4125 454.9375 932.625 C457 934 457 934 457.75 937.125 C457.87375 938.548125 457.87375 938.548125 458 940 C458.66 940 459.32 940 460 940 C461.5078125 942.08203125 461.5078125 942.08203125 463.125 944.8125 C463.66382813 945.70582031 464.20265625 946.59914063 464.7578125 947.51953125 C466 950 466 950 466 953 C466.66 953 467.32 953 468 953 C470.04169485 955.90548882 471 957.40142046 471 961 C471.66 961 472.32 961 473 961 C473.33 962.65 473.66 964.3 474 966 C474.66 966 475.32 966 476 966 C476 966.99 476 967.98 476 969 C476.66 969 477.32 969 478 969 C478.33 970.65 478.66 972.3 479 974 C479.66 974 480.32 974 481 974 C483.04169485 976.90548882 484 978.40142046 484 982 C484.66 982 485.32 982 486 982 C486.33 983.65 486.66 985.3 487 987 C487.66 987 488.32 987 489 987 C489 987.99 489 988.98 489 990 C489.66 990 490.32 990 491 990 C491.33 991.65 491.66 993.3 492 995 C492.66 995 493.32 995 494 995 C496.04169485 997.90548882 497 999.40142046 497 1003 C497.66 1003 498.32 1003 499 1003 C499.33 1004.65 499.66 1006.3 500 1008 C500.66 1008 501.32 1008 502 1008 C502 1008.99 502 1009.98 502 1011 C502.66 1011 503.32 1011 504 1011 C504.33 1012.65 504.66 1014.3 505 1016 C505.66 1016 506.32 1016 507 1016 C507.33 1017.65 507.66 1019.3 508 1021 C508.66 1021 509.32 1021 510 1021 C510 1021.99 510 1022.98 510 1024 C510.66 1024 511.32 1024 512 1024 C512.33 1025.65 512.66 1027.3 513 1029 C513.66 1029 514.32 1029 515 1029 C517.04169485 1031.90548882 518 1033.40142046 518 1037 C518.66 1037 519.32 1037 520 1037 C520.33 1038.65 520.66 1040.3 521 1042 C521.66 1042 522.32 1042 523 1042 C523 1042.99 523 1043.98 523 1045 C523.66 1045 524.32 1045 525 1045 C525.33 1046.65 525.66 1048.3 526 1050 C526.66 1050 527.32 1050 528 1050 C530.04169485 1052.90548882 531 1054.40142046 531 1058 C531.66 1058 532.32 1058 533 1058 C533.33 1059.65 533.66 1061.3 534 1063 C534.66 1063 535.32 1063 536 1063 C538.04169485 1065.90548882 539 1067.40142046 539 1071 C539.66 1071 540.32 1071 541 1071 C542.5078125 1073.08203125 542.5078125 1073.08203125 544.125 1075.8125 C544.66382813 1076.70582031 545.20265625 1077.59914063 545.7578125 1078.51953125 C547 1081 547 1081 547 1084 C547.66 1084 548.32 1084 549 1084 C550.5078125 1086.1171875 550.5078125 1086.1171875 552.125 1088.875 C552.66382813 1089.77992187 553.20265625 1090.68484375 553.7578125 1091.6171875 C555 1094 555 1094 555 1096 C555.66 1096 556.32 1096 557 1096 C557 1096.99 557 1097.98 557 1099 C557.66 1099 558.32 1099 559 1099 C559.33 1100.65 559.66 1102.3 560 1104 C560.66 1104 561.32 1104 562 1104 C562 1104.99 562 1105.98 562 1107 C562.66 1107 563.32 1107 564 1107 C564.33 1108.65 564.66 1110.3 565 1112 C565.66 1112 566.32 1112 567 1112 C569.04169485 1114.90548882 570 1116.40142046 570 1120 C570.99 1120.33 571.98 1120.66 573 1121 C574.02068374 1122.67918937 575.03289442 1124.36554532 575.9609375 1126.09765625 C577.46415956 1128.84979589 579.24846573 1131.40094914 581 1134 C581.45890625 1134.76699219 581.9178125 1135.53398438 582.390625 1136.32421875 C584.68511996 1140.13909508 587.13889157 1143.84811775 589.57421875 1147.57421875 C591 1150 591 1150 591 1152 C591.66 1152 592.32 1152 593 1152 C593.33 1153.65 593.66 1155.3 594 1157 C594.66 1157 595.32 1157 596 1157 C597.47309111 1159.10019014 598.81309635 1161.17767729 600.125 1163.375 C600.68380859 1164.27992188 600.68380859 1164.27992188 601.25390625 1165.203125 C604 1169.72965316 604 1169.72965316 604 1172 C604.66 1172 605.32 1172 606 1172 C606.33 1173.65 606.66 1175.3 607 1177 C607.66 1177 608.32 1177 609 1177 C609 1177.99 609 1178.98 609 1180 C609.66 1180 610.32 1180 611 1180 C615 1185.29411765 615 1185.29411765 615 1189 C615.66 1189 616.32 1189 617 1189 C618.47309111 1191.10019014 619.81309635 1193.17767729 621.125 1195.375 C621.68380859 1196.27992188 621.68380859 1196.27992188 622.25390625 1197.203125 C625 1201.72965316 625 1201.72965316 625 1204 C625.66 1204 626.32 1204 627 1204 C627.33 1205.65 627.66 1207.3 628 1209 C628.66 1209 629.32 1209 630 1209 C631.19542478 1210.68125012 632.30712843 1212.42248083 633.375 1214.1875 C635.20267963 1217.19471737 636.9732797 1219.96788877 639.2265625 1222.67578125 C641 1225 641 1225 641 1228 C641.66 1228 642.32 1228 643 1228 C644.69140625 1230.265625 644.69140625 1230.265625 646.5625 1233.25 C647.18253906 1234.22453125 647.80257812 1235.1990625 648.44140625 1236.203125 C649.75937184 1238.56819609 650.54147441 1240.36190757 651 1243 C651.66 1243 652.32 1243 653 1243 C653.33 1244.65 653.66 1246.3 654 1248 C654.99 1248.33 655.98 1248.66 657 1249 C658.38671875 1250.77734375 658.38671875 1250.77734375 659.6875 1252.9375 C660.12449219 1253.64777344 660.56148437 1254.35804687 661.01171875 1255.08984375 C662 1257 662 1257 662 1259 C662.66 1259 663.32 1259 664 1259 C664 1259.99 664 1260.98 664 1262 C664.66 1262 665.32 1262 666 1262 C666.33 1263.65 666.66 1265.3 667 1267 C667.66 1267 668.32 1267 669 1267 C671.29648649 1269.5614657 672 1270.47967572 672 1274 C672.66 1274 673.32 1274 674 1274 C675.55078125 1276.125 675.55078125 1276.125 677.3125 1279 C679.88476087 1283.20429881 679.88476087 1283.20429881 682.5703125 1287.3359375 C686.70315894 1293.49978277 686.70315894 1293.49978277 686 1298 C679.93189962 1298.49535513 676.8731428 1297.20631961 672 1294 C671.030625 1293.46375 670.06125 1292.9275 669.0625 1292.375 C668.381875 1291.92125 667.70125 1291.4675 667 1291 C667 1290.34 667 1289.68 667 1289 C666.01 1289 665.02 1289 664 1289 C664 1288.34 664 1287.68 664 1287 C662.9790625 1286.62875 662.9790625 1286.62875 661.9375 1286.25 C658.43134917 1284.75802092 655.28379632 1282.93164489 652 1281 C652 1280.34 652 1279.68 652 1279 C650.8553125 1278.814375 650.8553125 1278.814375 649.6875 1278.625 C647 1278 647 1278 644 1276 C644 1275.34 644 1274.68 644 1274 C642.35 1273.67 640.7 1273.34 639 1273 C639 1272.34 639 1271.68 639 1271 C637.8553125 1270.814375 637.8553125 1270.814375 636.6875 1270.625 C634 1270 634 1270 631 1268 C631 1267.34 631 1266.68 631 1266 C630.28070312 1265.90074219 629.56140625 1265.80148437 628.8203125 1265.69921875 C625.6197751 1264.90573372 623.60112662 1263.65568711 620.875 1261.8125 C612.28175215 1256.17209973 603.22134303 1251.52065841 594 1247 C594 1246.34 594 1245.68 594 1245 C592.9790625 1244.87625 592.9790625 1244.87625 591.9375 1244.75 C588.12528447 1243.77666838 585.38753637 1242.00742896 582 1240 C581.01 1239.67 580.02 1239.34 579 1239 C579 1238.34 579 1237.68 579 1237 C577.9171875 1236.814375 577.9171875 1236.814375 576.8125 1236.625 C574.04278106 1236.0095069 571.6029646 1235.11555626 569 1234 C569 1233.34 569 1232.68 569 1232 C567.02 1231.67 565.04 1231.34 563 1231 C563 1230.34 563 1229.68 563 1229 C562.46375 1228.87625 561.9275 1228.7525 561.375 1228.625 C558.5361714 1227.87793984 555.77776798 1226.94696636 553 1226 C553 1225.34 553 1224.68 553 1224 C551.02 1223.67 549.04 1223.34 547 1223 C547 1222.34 547 1221.68 547 1221 C545.93265625 1220.82017578 545.93265625 1220.82017578 544.84375 1220.63671875 C536.10405892 1218.67989231 527.77819257 1214.02659238 519.71484375 1210.234375 C516.99175996 1208.93903521 516.99175996 1208.93903521 514 1208 C514 1207.34 514 1206.68 514 1206 C513.0925 1205.938125 512.185 1205.87625 511.25 1205.8125 C505.49232998 1205.02898202 500.26385624 1202.34237281 495 1200 C495 1199.34 495 1198.68 495 1198 C492.36 1197.67 489.72 1197.34 487 1197 C487 1196.34 487 1195.68 487 1195 C485.35 1195 483.7 1195 482 1195 C482 1194.34 482 1193.68 482 1193 C479.36 1192.67 476.72 1192.34 474 1192 C474 1191.34 474 1190.68 474 1190 C472.96875 1189.87625 471.9375 1189.7525 470.875 1189.625 C467.37883154 1189.06110186 464.31602373 1188.21317941 461 1187 C461 1186.34 461 1185.68 461 1185 C459.96875 1184.87625 458.9375 1184.7525 457.875 1184.625 C454.37883154 1184.06110186 451.31602373 1183.21317941 448 1182 C448 1181.34 448 1180.68 448 1180 C446.88625 1179.9175 445.7725 1179.835 444.625 1179.75 C440.33211166 1179.21620828 436.76871415 1177.80769729 432.80859375 1176.12109375 C427.65660705 1174.06459836 422.3174264 1172.56689054 417 1171 C417 1170.34 417 1169.68 417 1169 C415.35 1169 413.7 1169 412 1169 C412 1168.34 412 1167.68 412 1167 C410.72125 1166.9175 409.4425 1166.835 408.125 1166.75 C403.4691172 1166.25063087 399.61938677 1164.83083856 395.359375 1162.9375 C392.91643771 1161.96679644 390.58657258 1161.44026767 388 1161 C388 1160.34 388 1159.68 388 1159 C384.7 1158.67 381.4 1158.34 378 1158 C378 1157.34 378 1156.68 378 1156 C377.14728516 1155.94392578 377.14728516 1155.94392578 376.27734375 1155.88671875 C370.92662196 1155.43114811 366.93996396 1154.20534105 362 1152 C359.75216799 1151.41395808 357.49843382 1150.93718032 355.22265625 1150.47265625 C352.09569642 1149.80769643 349.06295949 1148.91237091 346 1148 C346 1147.34 346 1146.68 346 1146 C345.34773438 1145.95101563 344.69546875 1145.90203125 344.0234375 1145.8515625 C339.01912031 1145.42346457 334.7436906 1144.70772862 330 1143 C326.01182421 1141.95156203 322.00726944 1140.97263821 318 1140 C318 1139.34 318 1138.68 318 1138 C317.28714844 1137.95101563 316.57429688 1137.90203125 315.83984375 1137.8515625 C310.29491509 1137.41871477 305.27913551 1136.75971184 300 1135 C300 1134.34 300 1133.68 300 1133 C299.14535156 1132.93941406 298.29070312 1132.87882812 297.41015625 1132.81640625 C295.75306641 1132.69072266 295.75306641 1132.69072266 294.0625 1132.5625 C292.96035156 1132.48128906 291.85820313 1132.40007812 290.72265625 1132.31640625 C288 1132 288 1132 287 1131 C285.17251936 1130.67366417 283.33745203 1130.38948173 281.5 1130.125 C277.69531308 1129.52449582 274.17584878 1128.8322962 270.5625 1127.5 C265.69584096 1125.72541714 260.74397073 1125.10510725 255.625 1124.4296875 C253 1124 253 1124 252 1123 C250.2675 1122.7525 250.2675 1122.7525 248.5 1122.5 C245 1122 245 1122 244 1121 C241.79751144 1120.64866469 239.58746072 1120.34429763 237.375 1120.0625 C229.48225584 1118.99094203 229.48225584 1118.99094203 226.0625 1117.9375 C222.72455838 1116.91568114 219.45082934 1116.48311611 216 1116 C215.67 1115.67 215.34 1115.34 215 1115 C212.67182036 1114.63239269 210.3381615 1114.29758419 208 1114 C208 1113.34 208 1112.68 208 1112 C207.20335937 1111.95101563 206.40671875 1111.90203125 205.5859375 1111.8515625 C200.06842949 1111.46224928 195.18539513 1111.02906766 190 1109 C188.21171894 1108.44725858 186.41973767 1107.90640277 184.625 1107.375 C183.75101563 1107.11460938 182.87703125 1106.85421875 181.9765625 1106.5859375 C181.32429688 1106.39257812 180.67203125 1106.19921875 180 1106 C180 1105.34 180 1104.68 180 1104 C178.9275 1103.87625 177.855 1103.7525 176.75 1103.625 C173.62136385 1103.10356064 171.66519576 1102.59911746 169 1101 C169 1100.34 169 1099.68 169 1099 C168.46375 1098.938125 167.9275 1098.87625 167.375 1098.8125 C161.07997778 1096.65893977 158.05374044 1091.93864372 154.98046875 1086.37890625 C151.06341383 1076.87497619 152.74172157 1064.95388114 154 1055 C154.66 1055 155.32 1055 156 1055 C155.95875 1053.845 155.9175 1052.69 155.875 1051.5 C155.86863805 1047.8673237 156.50069972 1044.73953503 157.48828125 1041.23046875 C158.48380996 1036.8911795 158.69036859 1032.4326181 159 1028 C159.66 1028 160.32 1028 161 1028 C160.99476318 1027.32646484 160.98952637 1026.65292969 160.98413086 1025.95898438 C160.89634786 1012.91820831 160.98994024 1000.00451941 162 987 C168.27 987 174.54 987 181 987 C181 986.34 181 985.68 181 985 C181.90093384 984.96241577 181.90093384 984.96241577 182.82006836 984.92407227 C185.52611437 984.8084472 188.23178283 984.68557064 190.9375 984.5625 C191.88302734 984.52318359 192.82855469 984.48386719 193.80273438 984.44335938 C194.70185547 984.40146484 195.60097656 984.35957031 196.52734375 984.31640625 C197.77632446 984.26141968 197.77632446 984.26141968 199.05053711 984.20532227 C201.00338858 984.20632897 201.00338858 984.20632897 202 983 C204.86914295 982.78058599 207.71996397 982.62059185 210.59375 982.5 C211.45560913 982.45939453 212.31746826 982.41878906 213.20544434 982.37695312 C216.90895264 982.20261516 220.61293235 982.03936372 224.31689453 981.875 C227.01353568 981.75378136 229.7098777 981.62703638 232.40625 981.5 C233.25102905 981.46455078 234.09580811 981.42910156 234.96618652 981.39257812 C238.79750745 981.56813037 238.79750745 981.56813037 242 980 C244.77695956 979.75254816 247.52929481 979.57084195 250.3125 979.4375 C251.14885986 979.3950415 251.98521973 979.35258301 252.84692383 979.30883789 C262.23047881 978.87585796 271.60913137 978.91094013 281 979 C281 978.34 281 977.68 281 977 C281.57032959 976.97494385 282.14065918 976.9498877 282.72827148 976.92407227 C285.29826157 976.80843451 287.86785527 976.68556376 290.4375 976.5625 C291.33533203 976.52318359 292.23316406 976.48386719 293.15820312 976.44335938 C294.01220703 976.40146484 294.86621094 976.35957031 295.74609375 976.31640625 C296.93223267 976.26141968 296.93223267 976.26141968 298.14233398 976.20532227 C300.01401441 976.19436743 300.01401441 976.19436743 301 975 C303.79767113 974.75314667 306.57119996 974.57119731 309.375 974.4375 C310.21393799 974.3950415 311.05287598 974.35258301 311.91723633 974.30883789 C320.94504223 973.89165337 329.96510119 973.90894279 339 974 C339 973.34 339 972.68 339 972 C340.20398437 971.93941406 341.40796875 971.87882812 342.6484375 971.81640625 C344.22397077 971.73200268 345.79949096 971.64735459 347.375 971.5625 C348.1690625 971.52318359 348.963125 971.48386719 349.78125 971.44335938 C354.02601221 971.31106596 354.02601221 971.31106596 358 970 C360.3329866 969.95977609 362.66706666 969.95679753 365 970 C364.4225 969.10796875 363.845 968.2159375 363.25 967.296875 C362.49952858 966.11488252 361.7495545 964.93257416 361 963.75 C360.6184375 963.16347656 360.236875 962.57695313 359.84375 961.97265625 C357.72252389 958.6014219 357 957.09419282 357 953 C356.34 953 355.68 953 355 953 C352.95830515 950.09451118 352 948.59857954 352 945 C351.34 945 350.68 945 350 945 C349.67 943.35 349.34 941.7 349 940 C348.34 940 347.68 940 347 940 C345.9923048 938.2335343 344.99408286 936.46166177 344 934.6875 C343.443125 933.70136719 342.88625 932.71523437 342.3125 931.69921875 C341 929 341 929 341 926 C340.34 926 339.68 926 339 926 C336.95830515 923.09451118 336 921.59857954 336 918 C335.34 918 334.68 918 334 918 C333.46375 916.865625 332.9275 915.73125 332.375 914.5625 C330.78682254 911.36924957 329.01539752 908.44125273 327 905.5 C320 895.23096447 320 895.23096447 320 890 C319.34 890 318.68 890 318 890 C315.95830515 887.09451118 315 885.59857954 315 882 C314.34 882 313.68 882 313 882 C310.95830515 879.09451118 310 877.59857954 310 874 C309.34 874 308.68 874 308 874 C307.67 872.35 307.34 870.7 307 869 C306.34 869 305.68 869 305 869 C304.62488281 868.29875 304.24976563 867.5975 303.86328125 866.875 C301.06252555 861.68266702 298.22453355 856.61936804 294.8828125 851.75390625 C294 850 294 850 294 846 C293.34 846 292.68 846 292 846 C289.95830515 843.09451118 289 841.59857954 289 838 C288.34 838 287.68 838 287 838 C284.95830515 835.09451118 284 833.59857954 284 830 C283.34 830 282.68 830 282 830 C281.67 828.35 281.34 826.7 281 825 C280.34 825 279.68 825 279 825 C277.9923048 823.2335343 276.99408286 821.46166177 276 819.6875 C275.443125 818.70136719 274.88625 817.71523438 274.3125 816.69921875 C273 814 273 814 273 811 C272.34 811 271.68 811 271 811 C268.95830515 808.09451118 268 806.59857954 268 803 C267.34 803 266.68 803 266 803 C265.59007812 802.24074219 265.18015625 801.48148438 264.7578125 800.69921875 C264.21898437 799.70535156 263.68015625 798.71148438 263.125 797.6875 C262.59132813 796.70136719 262.05765625 795.71523438 261.5078125 794.69921875 C259.99277874 791.90413542 259.99277874 791.90413542 258 789 C258 788.01 258 787.02 258 786 C257.34 786 256.68 786 256 786 C255.68546875 785.43152344 255.3709375 784.86304688 255.046875 784.27734375 C254.61890625 783.50519531 254.1909375 782.73304688 253.75 781.9375 C253.29753906 781.11894531 252.84507812 780.30039062 252.37890625 779.45703125 C251.18175798 777.32386903 249.9418858 775.22463501 248.6875 773.125 C247 770 247 770 247 767 C246.34 767 245.68 767 245 767 C242.95830515 764.09451118 242 762.59857954 242 759 C241.34 759 240.68 759 240 759 C237.95830515 756.09451118 237 754.59857954 237 751 C236.34 751 235.68 751 235 751 C234.67 749.35 234.34 747.7 234 746 C233.34 746 232.68 746 232 746 C231.63648438 745.32195313 231.27296875 744.64390625 230.8984375 743.9453125 C226.83734947 736.42709313 222.49720974 729.11661242 218.06640625 721.8125 C217.42574219 720.74 216.78507812 719.6675 216.125 718.5625 C215.52945312 717.57378906 214.93390625 716.58507812 214.3203125 715.56640625 C213 713 213 713 213 710 C212.34 710 211.68 710 211 710 C211 709.01 211 708.02 211 707 C210.34 707 209.68 707 209 707 C208.67 705.35 208.34 703.7 208 702 C207.34 702 206.68 702 206 702 C203 696.25 203 696.25 203 694 C202.34 694 201.68 694 201 694 C200.525625 692.989375 200.05125 691.97875 199.5625 690.9375 C197.45115647 686.70729927 195.06456222 682.67086874 192.625 678.625 C192.23393066 677.97619873 191.84286133 677.32739746 191.43994141 676.65893555 C189.67042378 673.73332818 187.88691644 670.81805292 186.08203125 667.9140625 C185.53933594 667.03492188 184.99664063 666.15578125 184.4375 665.25 C183.96183594 664.49203125 183.48617188 663.7340625 182.99609375 662.953125 C182 661 182 661 182 658 C181.34 658 180.68 658 180 658 C177.95830515 655.09451118 177 653.59857954 177 650 C176.34 650 175.68 650 175 650 C174.67 648.35 174.34 646.7 174 645 C173.34 645 172.68 645 172 645 C170.9923048 643.2335343 169.99408286 641.46166177 169 639.6875 C168.443125 638.70136719 167.88625 637.71523438 167.3125 636.69921875 C166 634 166 634 166 631 C165.34 631 164.68 631 164 631 C161.95830515 628.09451118 161 626.59857954 161 623 C160.34 623 159.68 623 159 623 C158.59007812 622.24074219 158.18015625 621.48148438 157.7578125 620.69921875 C157.21898437 619.70535156 156.68015625 618.71148438 156.125 617.6875 C155.59132813 616.70136719 155.05765625 615.71523438 154.5078125 614.69921875 C152.99277874 611.90413542 152.99277874 611.90413542 151 609 C151 608.01 151 607.02 151 606 C150.34 606 149.68 606 149 606 C148.67 604.35 148.34 602.7 148 601 C147.34 601 146.68 601 146 601 C144.9923048 599.2335343 143.99408286 597.46166177 143 595.6875 C142.443125 594.70136719 141.88625 593.71523438 141.3125 592.69921875 C140 590 140 590 140 587 C139.34 587 138.68 587 138 587 C135.95830515 584.09451118 135 582.59857954 135 579 C134.34 579 133.68 579 133 579 C130.95830515 576.09451118 130 574.59857954 130 571 C129.34 571 128.68 571 128 571 C127.67 569.35 127.34 567.7 127 566 C126.34 566 125.68 566 125 566 C124.63648438 565.32195313 124.27296875 564.64390625 123.8984375 563.9453125 C119.83734947 556.42709313 115.49720974 549.11661242 111.06640625 541.8125 C110.42574219 540.74 109.78507813 539.6675 109.125 538.5625 C108.52945313 537.57378906 107.93390625 536.58507812 107.3203125 535.56640625 C106 533 106 533 106 530 C105.34 530 104.68 530 104 530 C104 529.01 104 528.02 104 527 C103.34 527 102.68 527 102 527 C101.67 525.35 101.34 523.7 101 522 C100.34 522 99.68 522 99 522 C96.95830515 519.09451118 96 517.59857954 96 514 C95.34 514 94.68 514 94 514 C93.44183594 512.84371094 92.88367188 511.68742187 92.30859375 510.49609375 C90.14713704 506.17413125 87.66846065 502.12718358 85.0625 498.0625 C75 482.13729113 75 482.13729113 75 478 C74.34 478 73.68 478 73 478 C70.95830515 475.09451118 70 473.59857954 70 470 C69.34 470 68.68 470 68 470 C67.67 468.35 67.34 466.7 67 465 C66.34 465 65.68 465 65 465 C63.9923048 463.2335343 62.99408286 461.46166177 62 459.6875 C61.443125 458.70136719 60.88625 457.71523438 60.3125 456.69921875 C59 454 59 454 59 451 C58.34 451 57.68 451 57 451 C54.95830515 448.09451118 54 446.59857954 54 443 C53.34 443 52.68 443 52 443 C51.59007812 442.24074219 51.18015625 441.48148438 50.7578125 440.69921875 C50.21898437 439.70535156 49.68015625 438.71148438 49.125 437.6875 C48.59132813 436.70136719 48.05765625 435.71523438 47.5078125 434.69921875 C45.99277874 431.90413542 45.99277874 431.90413542 44 429 C44 428.01 44 427.02 44 426 C43.34 426 42.68 426 42 426 C41.68546875 425.43152344 41.3709375 424.86304688 41.046875 424.27734375 C40.61890625 423.50519531 40.1909375 422.73304688 39.75 421.9375 C39.29753906 421.12023437 38.84507812 420.30296875 38.37890625 419.4609375 C37.17445156 417.31134414 35.93731348 415.18583904 34.6875 413.0625 C33 410 33 410 33 408 C32.34 408 31.68 408 31 408 C28 402.375 28 402.375 28 399 C27.34 399 26.68 399 26 399 C23.95830515 396.09451118 23 394.59857954 23 391 C22.34 391 21.68 391 21 391 C20.67 389.35 20.34 387.7 20 386 C19.34 386 18.68 386 18 386 C15 380.25 15 380.25 15 378 C14.34 378 13.68 378 13 378 C12.505 376.948125 12.01 375.89625 11.5 374.8125 C8.93536429 369.65555265 5.86399316 364.82492496 2.8046875 359.953125 C-1 353.72727273 -1 353.72727273 -1 350 C-1.66 350 -2.32 350 -3 350 C-5.04169485 347.09451118 -6 345.59857954 -6 342 C-6.66 342 -7.32 342 -8 342 C-10.04169485 339.09451118 -11 337.59857954 -11 334 C-11.66 334 -12.32 334 -13 334 C-13.33 332.35 -13.66 330.7 -14 329 C-14.66 329 -15.32 329 -16 329 C-16.37511719 328.29875 -16.75023437 327.5975 -17.13671875 326.875 C-19.94820008 321.66278272 -22.80694216 316.56957012 -26.1171875 311.65625 C-27 310 -27 310 -27 307 C-27.66 307 -28.32 307 -29 307 C-31.43160605 303.63316085 -32 302.26649636 -32 298 C-32.66 298 -33.32 298 -34 298 C-36.04169485 295.09451118 -37 293.59857954 -37 290 C-37.66 290 -38.32 290 -39 290 C-39.33 288.35 -39.66 286.7 -40 285 C-40.66 285 -41.32 285 -42 285 C-44.04169485 282.09451118 -45 280.59857954 -45 277 C-45.66 277 -46.32 277 -47 277 C-47.33 275.35 -47.66 273.7 -48 272 C-48.66 272 -49.32 272 -50 272 C-53 266.375 -53 266.375 -53 263 C-53.66 263 -54.32 263 -55 263 C-57.04169485 260.09451118 -58 258.59857954 -58 255 C-58.66 255 -59.32 255 -60 255 C-60.33 253.35 -60.66 251.7 -61 250 C-61.66 250 -62.32 250 -63 250 C-63.54527344 248.98292969 -63.54527344 248.98292969 -64.1015625 247.9453125 C-67.17700686 242.25179757 -70.36024809 236.6727806 -73.80078125 231.19140625 C-74.9437793 229.10273554 -75.54961524 227.32610482 -76 225 C-76.66 225 -77.32 225 -78 225 C-78.27714844 224.43410156 -78.55429687 223.86820313 -78.83984375 223.28515625 C-79.20207031 222.55167969 -79.56429687 221.81820312 -79.9375 221.0625 C-80.47697266 219.96615234 -80.47697266 219.96615234 -81.02734375 218.84765625 C-81.86371827 217.03750973 -81.86371827 217.03750973 -83 216 C-83.98433021 208.32222433 -79.62300209 201.33061598 -76.5 194.5625 C-74.3760369 189.95513389 -72.57323513 185.29390441 -70.89453125 180.5078125 C-69.99193488 177.97738949 -69.0122752 175.48832406 -68 173 C-67.34 173 -66.68 173 -66 173 C-65.896875 171.948125 -65.79375 170.89625 -65.6875 169.8125 C-64.99454841 165.96976843 -63.96909309 164.27863558 -62 161 C-61.13887935 158.78916045 -60.32936333 156.55777524 -59.5625 154.3125 C-57.79750967 149.24014041 -55.93954692 144.2387656 -53.9140625 139.265625 C-52.54320953 135.86778432 -51.27249391 132.43573355 -50 129 C-49.34 129 -48.68 129 -48 129 C-47.67 126.36 -47.34 123.72 -47 121 C-46.34 121 -45.68 121 -45 121 C-44.814375 119.453125 -44.814375 119.453125 -44.625 117.875 C-44.06110186 114.37883154 -43.21317941 111.31602373 -42 108 C-41.34 108 -40.68 108 -40 108 C-39.67 105.36 -39.34 102.72 -39 100 C-38.34 100 -37.68 100 -37 100 C-37 98.35 -37 96.7 -37 95 C-36.34 95 -35.68 95 -35 95 C-34.67 92.36 -34.34 89.72 -34 87 C-33.34 87 -32.68 87 -32 87 C-31.67 84.36 -31.34 81.72 -31 79 C-30.34 79 -29.68 79 -29 79 C-29 77.35 -29 75.7 -29 74 C-28.34 74 -27.68 74 -27 74 C-26.67 71.36 -26.34 68.72 -26 66 C-25.34 66 -24.68 66 -24 66 C-23.9175 65.05125 -23.835 64.1025 -23.75 63.125 C-23.0235847 58.09053839 -20.99428298 53.64667933 -19 49 C-16.01074881 42.00931445 -13.30546321 35.04877315 -10.96875 27.8125 C-9.82617635 24.49535068 -8.42282488 21.35988097 -6.94921875 18.1796875 C-5.36615581 14.54450594 -4.18015186 10.78185028 -3 7 C-2.34 7 -1.68 7 -1 7 C-0.67 4.69 -0.34 2.38 0 0 Z " fill="#307EC0" transform="translate(765,119)"/>
<path d="M0 0 C2.0625 0.4375 2.0625 0.4375 4 1 C4 1.99 4 2.98 4 4 C4.66 4 5.32 4 6 4 C6.33 5.65 6.66 7.3 7 9 C7.66 9 8.32 9 9 9 C9.33 10.98 9.66 12.96 10 15 C10.66 15 11.32 15 12 15 C14.04169485 17.90548882 15 19.40142046 15 23 C15.66 23 16.32 23 17 23 C17.56267578 24.03447266 17.56267578 24.03447266 18.13671875 25.08984375 C18.64847656 26.02957031 19.16023438 26.96929687 19.6875 27.9375 C20.23019531 28.93652344 20.77289062 29.93554688 21.33203125 30.96484375 C22.37481551 32.8623692 23.43238694 34.75192871 24.51171875 36.62890625 C25.18654297 37.80259766 25.18654297 37.80259766 25.875 39 C26.28492188 39.70125 26.69484375 40.4025 27.1171875 41.125 C28 43 28 43 28 46 C28.66 46 29.32 46 30 46 C32.04169485 48.90548882 33 50.40142046 33 54 C33.66 54 34.32 54 35 54 C35.26554687 54.54269531 35.53109375 55.08539063 35.8046875 55.64453125 C36.33449219 56.71767578 36.33449219 56.71767578 36.875 57.8125 C37.22304688 58.52019531 37.57109375 59.22789062 37.9296875 59.95703125 C39.0656486 62.21246418 39.0656486 62.21246418 41 65 C41 65.99 41 66.98 41 68 C41.66 68 42.32 68 43 68 C43.40992188 68.75925781 43.81984375 69.51851563 44.2421875 70.30078125 C44.78101563 71.29464844 45.31984375 72.28851563 45.875 73.3125 C46.40867187 74.29863281 46.94234375 75.28476562 47.4921875 76.30078125 C49.00722126 79.09586458 49.00722126 79.09586458 51 82 C51 82.99 51 83.98 51 85 C51.66 85 52.32 85 53 85 C53.67408308 86.26691507 54.33900497 87.53870749 55 88.8125 C55.37125 89.52019531 55.7425 90.22789062 56.125 90.95703125 C57 93 57 93 57 96 C57.66 96 58.32 96 59 96 C59 96.99 59 97.98 59 99 C59.66 99 60.32 99 61 99 C61.556875 100.134375 62.11375 101.26875 62.6875 102.4375 C64.65156245 106.3937835 66.80956722 110.2120647 69.046875 114.01953125 C70 116 70 116 70 119 C70.66 119 71.32 119 72 119 C74.04169485 121.90548882 75 123.40142046 75 127 C75.66 127 76.32 127 77 127 C78.0076952 128.7664657 79.00591714 130.53833823 80 132.3125 C80.8353125 133.79169922 80.8353125 133.79169922 81.6875 135.30078125 C83 138 83 138 83 141 C83.66 141 84.32 141 85 141 C85.84114171 142.43294498 86.67265687 143.87154405 87.5 145.3125 C87.9640625 146.11300781 88.428125 146.91351562 88.90625 147.73828125 C90 150 90 150 90 153 C90.66 153 91.32 153 92 153 C92.33 154.65 92.66 156.3 93 158 C93.66 158 94.32 158 95 158 C95.33 159.65 95.66 161.3 96 163 C96.66 163 97.32 163 98 163 C101 168.625 101 168.625 101 172 C101.66 172 102.32 172 103 172 C103.45890625 172.85722656 103.9178125 173.71445312 104.390625 174.59765625 C105.00421875 175.74105469 105.6178125 176.88445312 106.25 178.0625 C106.568479 178.65724121 106.88695801 179.25198242 107.21508789 179.86474609 C108.89516488 182.99092747 110.61551806 186.07959337 112.4375 189.125 C114 192 114 192 114 195 C114.66 195 115.32 195 116 195 C116.33 196.65 116.66 198.3 117 200 C117.66 200 118.32 200 119 200 C119 200.99 119 201.98 119 203 C119.66 203 120.32 203 121 203 C121.33 204.65 121.66 206.3 122 208 C122.66 208 123.32 208 124 208 C125.15082685 210.24756784 126.29576858 212.49781748 127.4375 214.75 C127.92573242 215.70132813 127.92573242 215.70132813 128.42382812 216.671875 C129.97063665 219.73359908 131.3915078 222.60615621 132 226 C132.66 226 133.32 226 134 226 C134.33 227.65 134.66 229.3 135 231 C135.66 231 136.32 231 137 231 C138.0076952 232.7664657 139.00591714 234.53833823 140 236.3125 C140.8353125 237.79169922 140.8353125 237.79169922 141.6875 239.30078125 C143 242 143 242 143 245 C143.66 245 144.32 245 145 245 C145.61488281 246.13888672 145.61488281 246.13888672 146.2421875 247.30078125 C146.78101563 248.29464844 147.31984375 249.28851562 147.875 250.3125 C148.40867187 251.29863281 148.94234375 252.28476562 149.4921875 253.30078125 C151.00722126 256.09586458 151.00722126 256.09586458 153 259 C153 259.99 153 260.98 153 262 C153.66 262 154.32 262 155 262 C155.33 263.98 155.66 265.96 156 268 C156.66 268 157.32 268 158 268 C160.04169485 270.90548882 161 272.40142046 161 276 C161.66 276 162.32 276 163 276 C163.515625 277.093125 164.03125 278.18625 164.5625 279.3125 C166.86004665 283.96565405 169.69463105 288.19798684 172.609375 292.484375 C174 295 174 295 174 299 C174.66 299 175.32 299 176 299 C176.33 300.65 176.66 302.3 177 304 C177.66 304 178.32 304 179 304 C179 304.99 179 305.98 179 307 C179.66 307 180.32 307 181 307 C181.81752303 308.58074564 182.62881997 310.16471223 183.4375 311.75 C183.88996094 312.63171875 184.34242188 313.5134375 184.80859375 314.421875 C185.83455398 316.64198566 186.51508603 318.61444619 187 321 C187.66 321 188.32 321 189 321 C189.33 322.65 189.66 324.3 190 326 C190.66 326 191.32 326 192 326 C192 327.32 192 328.64 192 330 C192.66 330 193.32 330 194 330 C195.50787377 332.59988552 197.00645461 335.20440197 198.5 337.8125 C199.14388672 338.91948242 199.14388672 338.91948242 199.80078125 340.04882812 C200.40986328 341.11713867 200.40986328 341.11713867 201.03125 342.20703125 C201.40830078 342.8616333 201.78535156 343.51623535 202.17382812 344.19067383 C203 346 203 346 203 349 C203.66 349 204.32 349 205 349 C205.56267578 350.03447266 205.56267578 350.03447266 206.13671875 351.08984375 C206.64847656 352.02957031 207.16023438 352.96929688 207.6875 353.9375 C208.23019531 354.93652344 208.77289062 355.93554688 209.33203125 356.96484375 C210.37481551 358.8623692 211.43238694 360.75192871 212.51171875 362.62890625 C213.18654297 363.80259766 213.18654297 363.80259766 213.875 365 C214.28492188 365.70125 214.69484375 366.4025 215.1171875 367.125 C216 369 216 369 216 372 C216.66 372 217.32 372 218 372 C220.04169485 374.90548882 221 376.40142046 221 380 C221.66 380 222.32 380 223 380 C223.26554687 380.54269531 223.53109375 381.08539062 223.8046875 381.64453125 C224.15789062 382.35996094 224.51109375 383.07539062 224.875 383.8125 C225.22304688 384.52019531 225.57109375 385.22789062 225.9296875 385.95703125 C227.0656486 388.21246418 227.0656486 388.21246418 229 391 C229 391.99 229 392.98 229 394 C229.66 394 230.32 394 231 394 C232.00484204 395.95585325 233.00373805 397.91476237 234 399.875 C234.556875 400.96554687 235.11375 402.05609375 235.6875 403.1796875 C237 406 237 406 237 408 C237.66 408 238.32 408 239 408 C239 408.99 239 409.98 239 411 C239.66 411 240.32 411 241 411 C241.26554688 411.54269531 241.53109375 412.08539062 241.8046875 412.64453125 C242.15789063 413.35996094 242.51109375 414.07539062 242.875 414.8125 C243.22304688 415.52019531 243.57109375 416.22789062 243.9296875 416.95703125 C245.0656486 419.21246418 245.0656486 419.21246418 247 422 C247 422.99 247 423.98 247 425 C247.66 425 248.32 425 249 425 C249.515625 426.0725 250.03125 427.145 250.5625 428.25 C252.97429649 433.11712721 255.78386897 437.72731442 258.609375 442.36328125 C260 445 260 445 260 448 C260.66 448 261.32 448 262 448 C262.33 449.65 262.66 451.3 263 453 C263.66 453 264.32 453 265 453 C265 453.99 265 454.98 265 456 C265.66 456 266.32 456 267 456 C267.67408308 457.26691507 268.33900497 458.53870749 269 459.8125 C269.37125 460.52019531 269.7425 461.22789062 270.125 461.95703125 C271 464 271 464 271 467 C271.66 467 272.32 467 273 467 C274.15143825 469.0804054 275.29624112 471.16401997 276.4375 473.25 C276.76298828 473.83652344 277.08847656 474.42304687 277.42382812 475.02734375 C279.02882617 477.9725979 280.4163488 480.67894245 281 484 C281.66 484 282.32 484 283 484 C283.33 485.98 283.66 487.96 284 490 C284.66 490 285.32 490 286 490 C288.04169485 492.90548882 289 494.40142046 289 498 C289.66 498 290.32 498 291 498 C292.00732399 499.93370231 293.00563288 501.87210306 294 503.8125 C294.556875 504.89144531 295.11375 505.97039062 295.6875 507.08203125 C297 510 297 510 297 513 C297.66 513 298.32 513 299 513 C301.03435531 516.72965139 302 518.66905042 302 523 C302.66 523 303.32 523 304 523 C307.09849131 529.58429403 308.68943759 536.78409707 307 544 C301.45760927 549.38922144 294.86177894 548.65758011 287.50390625 548.73046875 C286.10150126 548.75733496 284.69912158 548.78555032 283.29676819 548.81498718 C279.38224873 548.89007029 275.46787029 548.9361806 271.55283356 548.9743576 C268.92910199 549.00071215 266.30548074 549.03257697 263.68182373 549.06549072 C252.10304209 549.2063092 240.52513146 549.27198823 228.94555664 549.29516602 C224.89528034 549.30417251 220.84533095 549.32544041 216.79516602 549.35668945 C211.81749591 549.39508558 206.84011935 549.41391907 201.86230659 549.41844749 C199.98966063 549.42329184 198.1170186 549.43484374 196.24445915 549.45348549 C193.64821269 549.47783732 191.05311277 549.47692566 188.45678711 549.4699707 C187.70001175 549.48278076 186.94323639 549.49559082 186.16352844 549.50878906 C179.73168217 549.44608304 175.53369348 547.36893661 170.77734375 542.921875 C168.83375236 540.62752932 166.89477364 538.33497358 165 536 C164.39285156 535.25492188 163.78570313 534.50984375 163.16015625 533.7421875 C159 528.43676471 159 528.43676471 159 525 C158.34 525 157.68 525 157 525 C153.13348688 518.13462267 153.13348688 518.13462267 151.57055664 515.34887695 C149.82445321 512.23682827 148.07443554 509.12881767 146.2890625 506.0390625 C145.84304688 505.26304687 145.39703125 504.48703125 144.9375 503.6875 C144.55464844 503.03136719 144.17179687 502.37523437 143.77734375 501.69921875 C143 500 143 500 143 497 C142.34 497 141.68 497 141 497 C138.95830515 494.09451118 138 492.59857954 138 489 C137.34 489 136.68 489 136 489 C133.95830515 486.09451118 133 484.59857954 133 481 C132.34 481 131.68 481 131 481 C130.73445313 480.45730469 130.46890625 479.91460938 130.1953125 479.35546875 C129.84210938 478.64003906 129.48890625 477.92460938 129.125 477.1875 C128.77695312 476.47980469 128.42890625 475.77210938 128.0703125 475.04296875 C126.9343514 472.78753582 126.9343514 472.78753582 125 470 C125 468.68 125 467.36 125 466 C124.34 466 123.68 466 123 466 C120.95830515 463.09451118 120 461.59857954 120 458 C119.34 458 118.68 458 118 458 C117.67 456.35 117.34 454.7 117 453 C116.34 453 115.68 453 115 453 C115 452.01 115 451.02 115 450 C114.34 450 113.68 450 113 450 C112.68546875 449.35933594 112.3709375 448.71867187 112.046875 448.05859375 C110.02609435 443.97442564 108.00333289 439.92612529 105.6875 436 C104 433 104 433 104 431 C103.34 431 102.68 431 102 431 C100.99267601 429.06629769 99.99436712 427.12789694 99 425.1875 C98.443125 424.10855469 97.88625 423.02960938 97.3125 421.91796875 C96 419 96 419 96 416 C95.34 416 94.68 416 94 416 C91.95830515 413.09451118 91 411.59857954 91 408 C90.34 408 89.68 408 89 408 C86.95830515 405.09451118 86 403.59857954 86 400 C85.34 400 84.68 400 84 400 C83.73445313 399.45730469 83.46890625 398.91460938 83.1953125 398.35546875 C82.84210938 397.64003906 82.48890625 396.92460938 82.125 396.1875 C81.77695312 395.47980469 81.42890625 394.77210938 81.0703125 394.04296875 C79.9343514 391.78753582 79.9343514 391.78753582 78 389 C78 387.68 78 386.36 78 385 C77.34 385 76.68 385 76 385 C73.95830515 382.09451118 73 380.59857954 73 377 C72.34 377 71.68 377 71 377 C70.73445313 376.45730469 70.46890625 375.91460938 70.1953125 375.35546875 C69.84210938 374.64003906 69.48890625 373.92460938 69.125 373.1875 C68.77695312 372.47980469 68.42890625 371.77210938 68.0703125 371.04296875 C66.9343514 368.78753582 66.9343514 368.78753582 65 366 C65 365.01 65 364.02 65 363 C64.34 363 63.68 363 63 363 C61.65869239 360.73354942 60.32683766 358.46239903 59 356.1875 C58.6184375 355.54490234 58.236875 354.90230469 57.84375 354.24023438 C55 349.33984375 55 349.33984375 55 346 C54.34 346 53.68 346 53 346 C52.73445313 345.45730469 52.46890625 344.91460938 52.1953125 344.35546875 C51.84210938 343.64003906 51.48890625 342.92460938 51.125 342.1875 C50.77695312 341.47980469 50.42890625 340.77210938 50.0703125 340.04296875 C48.9343514 337.78753582 48.9343514 337.78753582 47 335 C47 334.01 47 333.02 47 332 C46.34 332 45.68 332 45 332 C44.67 330.35 44.34 328.7 44 327 C43.34 327 42.68 327 42 327 C40.98965502 325.25595212 39.99207578 323.50450439 39 321.75 C38.1646875 320.28820312 38.1646875 320.28820312 37.3125 318.796875 C36 316 36 316 36 312 C35.34 312 34.68 312 34 312 C31.95830515 309.09451118 31 307.59857954 31 304 C30.34 304 29.68 304 29 304 C26.95830515 301.09451118 26 299.59857954 26 296 C25.34 296 24.68 296 24 296 C23.484375 294.88625 22.96875 293.7725 22.4375 292.625 C20.21691432 288.12771276 17.38718174 284.20931675 14.390625 280.19921875 C13 278 13 278 13 275 C12.01 274.67 11.02 274.34 10 274 C10 273.34 10 272.68 10 272 C9.34 272 8.68 272 8 272 C8 271.34 8 270.68 8 270 C4.87709365 270.48578543 2.00419641 270.9986012 -1 272 C-1.33 272.825 -1.66 273.65 -2 274.5 C-2.33 275.325 -2.66 276.15 -3 277 C-3.99 277.33 -4.98 277.66 -6 278 C-6.33 279.65 -6.66 281.3 -7 283 C-7.66 283 -8.32 283 -9 283 C-9 283.99 -9 284.98 -9 286 C-9.66 286 -10.32 286 -11 286 C-11.33 287.65 -11.66 289.3 -12 291 C-12.66 291 -13.32 291 -14 291 C-14.0825 291.680625 -14.165 292.36125 -14.25 293.0625 C-15.76218359 298.98521904 -19.65790859 304.10821762 -22.94921875 309.203125 C-24.1563472 311.12584033 -24.1563472 311.12584033 -25 314 C-25.66 314 -26.32 314 -27 314 C-27.12375 314.5775 -27.2475 315.155 -27.375 315.75 C-28.00648824 318.02335767 -28.88858191 319.9253529 -30 322 C-30.66 322 -31.32 322 -32 322 C-32.0825 322.845625 -32.165 323.69125 -32.25 324.5625 C-33.16096902 328.73777468 -34.76537918 331.36874117 -37 335 C-37.33 335.66 -37.66 336.32 -38 337 C-38.66 337 -39.32 337 -40 337 C-40.0825 337.70125 -40.165 338.4025 -40.25 339.125 C-41.17138864 342.65698979 -42.92645814 345.01928357 -45 348 C-45.33 348.99 -45.66 349.98 -46 351 C-46.66 351 -47.32 351 -48 351 C-48.185625 352.1446875 -48.185625 352.1446875 -48.375 353.3125 C-49 356 -49 356 -51 359 C-51.66 359 -52.32 359 -53 359 C-53.0825 359.845625 -53.165 360.69125 -53.25 361.5625 C-54.16096902 365.73777468 -55.76537918 368.36874117 -58 372 C-58.33 372.66 -58.66 373.32 -59 374 C-59.66 374 -60.32 374 -61 374 C-61.08378906 374.6909375 -61.16757812 375.381875 -61.25390625 376.09375 C-62.19240524 379.7494738 -63.892016 382.33375352 -65.9375 385.5 C-68.36004867 389.26352389 -70.49493721 392.77636829 -72 397 C-72.66 397 -73.32 397 -74 397 C-74.0825 397.70125 -74.165 398.4025 -74.25 399.125 C-75.17138864 402.65698979 -76.92645814 405.01928357 -79 408 C-79.33 408.99 -79.66 409.98 -80 411 C-80.66 411 -81.32 411 -82 411 C-82.11472656 411.556875 -82.22945312 412.11375 -82.34765625 412.6875 C-83.09235837 415.32740212 -84.18455809 417.56103889 -85.4375 420 C-85.86933594 420.845625 -86.30117188 421.69125 -86.74609375 422.5625 C-87.36677734 423.7690625 -87.36677734 423.7690625 -88 425 C-88.66846664 426.33243183 -89.3358059 427.66543325 -90 429 C-90.66 429 -91.32 429 -92 429 C-92.33 430.65 -92.66 432.3 -93 434 C-93.66 434 -94.32 434 -95 434 C-95 434.99 -95 435.98 -95 437 C-95.66 437 -96.32 437 -97 437 C-97.16822266 438.07314453 -97.16822266 438.07314453 -97.33984375 439.16796875 C-98.04456005 442.19115998 -99.13287798 444.56322688 -100.5625 447.3125 C-101.01753906 448.19550781 -101.47257813 449.07851563 -101.94140625 449.98828125 C-102.46541016 450.98408203 -102.46541016 450.98408203 -103 452 C-103.66 452 -104.32 452 -105 452 C-105.11214844 452.72574219 -105.22429687 453.45148438 -105.33984375 454.19921875 C-106.02961387 457.12563993 -107.05510814 459.22287809 -108.5625 461.8125 C-109.01753906 462.60269531 -109.47257813 463.39289063 -109.94140625 464.20703125 C-110.29074219 464.79871094 -110.64007812 465.39039063 -111 466 C-111.66 466 -112.32 466 -113 466 C-113.33 467.65 -113.66 469.3 -114 471 C-114.66 471 -115.32 471 -116 471 C-116.11472656 471.556875 -116.22945312 472.11375 -116.34765625 472.6875 C-117.09235837 475.32740212 -118.18455809 477.56103889 -119.4375 480 C-119.86933594 480.845625 -120.30117188 481.69125 -120.74609375 482.5625 C-121.36677734 483.7690625 -121.36677734 483.7690625 -122 485 C-122.66846664 486.33243183 -123.3358059 487.66543325 -124 489 C-124.66 489 -125.32 489 -126 489 C-126.185625 490.1446875 -126.185625 490.1446875 -126.375 491.3125 C-127 494 -127 494 -129 497 C-129.66 497 -130.32 497 -131 497 C-131.061875 497.804375 -131.12375 498.60875 -131.1875 499.4375 C-132.26536993 504.1635451 -134.51591419 507.87513427 -137 512 C-137.66 512 -138.32 512 -139 512 C-139.12375 512.763125 -139.2475 513.52625 -139.375 514.3125 C-140 517 -140 517 -142 520 C-142.66 520 -143.32 520 -144 520 C-144.33 521.98 -144.66 523.96 -145 526 C-145.66 526 -146.32 526 -147 526 C-147.33 527.65 -147.66 529.3 -148 531 C-148.66 531 -149.32 531 -150 531 C-150.309375 531.78375 -150.61875 532.5675 -150.9375 533.375 C-152 536 -152 536 -153 538 C-153.66 538 -154.32 538 -155 538 C-155.3403125 538.86625 -155.3403125 538.86625 -155.6875 539.75 C-158.36517518 544.34030031 -162.5941663 546.71619378 -167.53125 548.47265625 C-172.61460407 549.55849929 -177.83308531 549.21266265 -183 549 C-183 549.66 -183 550.32 -183 551 C-184.30988892 551.08302368 -184.30988892 551.08302368 -185.64624023 551.16772461 C-188.87614798 551.37464024 -192.10575153 551.5856819 -195.33520508 551.79956055 C-196.73483636 551.8913956 -198.13457764 551.98156953 -199.53442383 552.07006836 C-201.54276004 552.19732223 -203.55068707 552.3309833 -205.55859375 552.46484375 C-206.76829834 552.543396 -207.97800293 552.62194824 -209.22436523 552.70288086 C-211.90538283 552.69610704 -211.90538283 552.69610704 -213 554 C-216.2098693 554.26998901 -219.41230859 554.44611437 -222.62890625 554.60546875 C-226.10944277 554.4970552 -226.10944277 554.4970552 -229 556 C-238.9570602 557.21281485 -248.98917813 557.11700961 -259 557 C-259 557.66 -259 558.32 -259 559 C-260.14339844 559.06058594 -261.28679687 559.12117187 -262.46484375 559.18359375 C-263.95574305 559.26798428 -265.44662775 559.35263302 -266.9375 559.4375 C-267.69224609 559.47681641 -268.44699219 559.51613281 -269.22460938 559.55664062 C-272.91944187 559.44038024 -272.91944187 559.44038024 -276 561 C-278.33297433 561.04092937 -280.66705225 561.04241723 -283 561 C-283.88855164 558.00446363 -284.19605797 556.48360967 -283.00390625 553.54296875 C-282.52824219 552.76566406 -282.05257813 551.98835937 -281.5625 551.1875 C-281.08941406 550.39730469 -280.61632812 549.60710938 -280.12890625 548.79296875 C-279.75636719 548.20128906 -279.38382812 547.60960937 -279 547 C-278.34 547 -277.68 547 -277 547 C-276.87625 546.236875 -276.7525 545.47375 -276.625 544.6875 C-276 542 -276 542 -274 539 C-273.34 539 -272.68 539 -272 539 C-271.67 536.69 -271.34 534.38 -271 532 C-270.34 532 -269.68 532 -269 532 C-268.87625 531.236875 -268.7525 530.47375 -268.625 529.6875 C-268 527 -268 527 -266 524 C-265.34 524 -264.68 524 -264 524 C-263.67 522.02 -263.34 520.04 -263 518 C-262.34 518 -261.68 518 -261 518 C-260.90847656 517.48953125 -260.81695312 516.9790625 -260.72265625 516.453125 C-259.70979202 513.01486157 -258.06779568 509.92665535 -256.4375 506.75 C-256.10814453 506.1003125 -255.77878906 505.450625 -255.43945312 504.78125 C-254.62992435 503.18565706 -253.81544958 501.59257517 -253 500 C-252.34 500 -251.68 500 -251 500 C-250.67 498.35 -250.34 496.7 -250 495 C-249.34 495 -248.68 495 -248 495 C-247.896875 494.28070312 -247.79375 493.56140625 -247.6875 492.8203125 C-246.92518285 489.69307965 -245.72285625 487.58352881 -244 484.875 C-242.30329901 482.19127583 -241.00743074 480.02229222 -240 477 C-239.34 477 -238.68 477 -238 477 C-237.67 475.02 -237.34 473.04 -237 471 C-236.34 471 -235.68 471 -235 471 C-234.90847656 470.48953125 -234.81695312 469.9790625 -234.72265625 469.453125 C-233.70979202 466.01486157 -232.06779568 462.92665535 -230.4375 459.75 C-230.10814453 459.1003125 -229.77878906 458.450625 -229.43945312 457.78125 C-228.62992435 456.18565706 -227.81544958 454.59257517 -227 453 C-226.34 453 -225.68 453 -225 453 C-224.67 451.35 -224.34 449.7 -224 448 C-223.34 448 -222.68 448 -222 448 C-221.9175 447.13375 -221.835 446.2675 -221.75 445.375 C-221.04417013 442.19876559 -220.13610056 440.50555133 -218.25390625 437.921875 C-215.39761716 433.54401135 -213.27977764 428.69634194 -211 424 C-210.34 424 -209.68 424 -209 424 C-208.9175 423.13375 -208.835 422.2675 -208.75 421.375 C-207.89008133 417.50536598 -206.28040293 415.20681662 -204 412 C-203.67 411.01 -203.34 410.02 -203 409 C-202.34 409 -201.68 409 -201 409 C-200.90847656 408.31550781 -200.81695312 407.63101562 -200.72265625 406.92578125 C-199.82696359 403.29943637 -198.24973718 400.44952692 -196.4375 397.1875 C-196.10814453 396.59001953 -195.77878906 395.99253906 -195.43945312 395.37695312 C-194.63226733 393.91466002 -193.81695083 392.4568601 -193 391 C-192.34 391 -191.68 391 -191 391 C-190.67 389.02 -190.34 387.04 -190 385 C-189.34 385 -188.68 385 -188 385 C-187.90976562 384.31808594 -187.81953125 383.63617187 -187.7265625 382.93359375 C-186.82850465 379.30756447 -185.18221182 376.29634708 -183.375 373.0625 C-182.6520542 371.74045245 -181.93073991 370.41751162 -181.2109375 369.09375 C-180.84452148 368.42085937 -180.47810547 367.74796875 -180.10058594 367.0546875 C-177.27028129 361.77078246 -174.6505031 356.37555161 -172 351 C-171.34 351 -170.68 351 -170 351 C-169.87625 350.0925 -169.7525 349.185 -169.625 348.25 C-169.07890323 345.41029677 -168.42736197 343.47409409 -167 341 C-166.34 341 -165.68 341 -165 341 C-164.88785156 340.28457031 -164.77570313 339.56914063 -164.66015625 338.83203125 C-163.95543995 335.80884002 -162.86712202 333.43677312 -161.4375 330.6875 C-160.75494141 329.36298828 -160.75494141 329.36298828 -160.05859375 328.01171875 C-159.53458984 327.01591797 -159.53458984 327.01591797 -159 326 C-158.34 326 -157.68 326 -157 326 C-156.67 324.02 -156.34 322.04 -156 320 C-155.34 320 -154.68 320 -154 320 C-153.87625 319.278125 -153.7525 318.55625 -153.625 317.8125 C-153.0095069 315.04278106 -152.11555626 312.6029646 -151 310 C-150.34 310 -149.68 310 -149 310 C-148.67 308.02 -148.34 306.04 -148 304 C-147.34 304 -146.68 304 -146 304 C-146 302.68 -146 301.36 -146 300 C-145.34 300 -144.68 300 -144 300 C-143.9175 299.33226562 -143.835 298.66453125 -143.75 297.9765625 C-142.77237588 294.09661679 -140.92696318 290.84634974 -139 287.375 C-135.17370871 280.32571708 -131.64926606 273.17899354 -128.25390625 265.91357422 C-125.38389026 259.77929534 -122.38658425 253.72181353 -119.3125 247.6875 C-117.92634626 244.99931165 -117.92634626 244.99931165 -117 242 C-116.34 242 -115.68 242 -115 242 C-114.814375 240.63875 -114.814375 240.63875 -114.625 239.25 C-114.07890323 236.41029677 -113.42736197 234.47409409 -112 232 C-111.34 232 -110.68 232 -110 232 C-109.67 230.02 -109.34 228.04 -109 226 C-108.34 226 -107.68 226 -107 226 C-106.814375 224.63875 -106.814375 224.63875 -106.625 223.25 C-106.07890323 220.41029677 -105.42736197 218.47409409 -104 216 C-103.34 216 -102.68 216 -102 216 C-101.814375 214.63875 -101.814375 214.63875 -101.625 213.25 C-101.07890323 210.41029677 -100.42736197 208.47409409 -99 206 C-98.34 206 -97.68 206 -97 206 C-96.91621094 205.18789063 -96.83242188 204.37578125 -96.74609375 203.5390625 C-95.81151366 199.10592342 -94.04850263 195.42433634 -92.0625 191.375 C-91.70220703 190.62476563 -91.34191406 189.87453125 -90.97070312 189.1015625 C-89.3427187 185.71967221 -87.68226544 182.3552031 -86 179 C-85.34 179 -84.68 179 -84 179 C-83.67 176.69 -83.34 174.38 -83 172 C-82.34 172 -81.68 172 -81 172 C-80.9175 171.34 -80.835 170.68 -80.75 170 C-79.94546272 166.7818509 -78.70584994 164.25163451 -77.18359375 161.32421875 C-74.49249255 156.0397131 -71.87640537 150.62921611 -70 145 C-69.34 145 -68.68 145 -68 145 C-67.814375 143.63875 -67.814375 143.63875 -67.625 142.25 C-67.07890323 139.41029677 -66.42736197 137.47409409 -65 135 C-64.34 135 -63.68 135 -63 135 C-62.9175 134.154375 -62.835 133.30875 -62.75 132.4375 C-62.02469363 129.11317912 -60.86562668 126.85899418 -59.10546875 123.98046875 C-57.41342337 120.94913657 -56.25895061 117.73392924 -55.01171875 114.5 C-54.04829782 112.11934597 -52.97738348 109.85021341 -51.8125 107.5625 C-49.97167109 104.16224737 -49.97167109 104.16224737 -49 101 C-48.34 101 -47.68 101 -47 101 C-46.814375 99.63875 -46.814375 99.63875 -46.625 98.25 C-46.07890323 95.41029677 -45.42736197 93.47409409 -44 91 C-43.34 91 -42.68 91 -42 91 C-41.814375 89.6696875 -41.814375 89.6696875 -41.625 88.3125 C-41.05587264 85.29612498 -40.23385564 82.79673946 -39 80 C-38.34 80 -37.68 80 -37 80 C-36.938125 79.21625 -36.87625 78.4325 -36.8125 77.625 C-35.6967665 72.64711207 -33.39693773 68.47546306 -31 64 C-30.34 64 -29.68 64 -29 64 C-28.9175 63.01 -28.835 62.02 -28.75 61 C-28.21970428 57.16315451 -26.7758492 54.17619339 -24.9375 50.796875 C-23.86302477 48.85318414 -23.86302477 48.85318414 -23 46 C-22.34 46 -21.68 46 -21 46 C-20.87625 45.278125 -20.7525 44.55625 -20.625 43.8125 C-20.0095069 41.04278106 -19.11555626 38.6029646 -18 36 C-17.34 36 -16.68 36 -16 36 C-15.9175 34.989375 -15.835 33.97875 -15.75 32.9375 C-15.25586409 29.45766964 -13.98897049 26.97337574 -12.12109375 23.9765625 C-9.97268415 20.18877414 -8.53776783 16.0652692 -7 12 C-6.34 12 -5.68 12 -5 12 C-4.896875 11.484375 -4.79375 10.96875 -4.6875 10.4375 C-2.42857143 2.42857143 -2.42857143 2.42857143 0 0 Z " fill="#307EC0" transform="translate(634,439)"/>
<path d="M0 0 C6.48292295 -0.3669579 6.48292295 -0.3669579 8.9375 1.375 C10 3 10 3 10 5 C10.66 5 11.32 5 12 5 C12.33 6.65 12.66 8.3 13 10 C13.66 10 14.32 10 15 10 C16.15082685 12.24756784 17.29576858 14.49781748 18.4375 16.75 C18.76298828 17.38421875 19.08847656 18.0184375 19.42382812 18.671875 C20.97063665 21.73359908 22.3915078 24.60615621 23 28 C23.66 28 24.32 28 25 28 C25.30292969 28.61746094 25.60585938 29.23492188 25.91796875 29.87109375 C29.13429404 36.37301903 32.47869755 42.78418583 36.203125 49.01171875 C39 53.70928697 39 53.70928697 39 57 C39.66 57 40.32 57 41 57 C42.00732399 58.93370231 43.00563288 60.87210306 44 62.8125 C44.8353125 64.43091797 44.8353125 64.43091797 45.6875 66.08203125 C47 69 47 69 47 72 C47.66 72 48.32 72 49 72 C52 77.625 52 77.625 52 81 C52.66 81 53.32 81 54 81 C55.33333333 83.66666667 56.66666667 86.33333333 58 89 C58.37382813 89.68578125 58.74765625 90.3715625 59.1328125 91.078125 C60 93 60 93 60 96 C60.66 96 61.32 96 62 96 C64.03435531 99.72965139 65 101.66905042 65 106 C65.66 106 66.32 106 67 106 C68.18781586 110.67584655 68.1483211 115.21140179 68.125 120 C68.12886719 120.7940625 68.13273438 121.588125 68.13671875 122.40625 C68.13005759 126.4029478 67.99085908 130.09947535 67 134 C66.34 134 65.68 134 65 134 C64.814375 135.60875 64.814375 135.60875 64.625 137.25 C64.10356064 140.37863615 63.59911746 142.33480424 62 145 C61.34 145 60.68 145 60 145 C59.87625 145.9075 59.7525 146.815 59.625 147.75 C59.07890323 150.58970323 58.42736197 152.52590591 57 155 C56.34 155 55.68 155 55 155 C54.938125 155.78375 54.87625 156.5675 54.8125 157.375 C53.6967665 162.35288793 51.39693773 166.52453694 49 171 C48.34 171 47.68 171 47 171 C46.67 172.65 46.34 174.3 46 176 C45.34 176 44.68 176 44 176 C43.896875 176.71929688 43.79375 177.43859375 43.6875 178.1796875 C42.92518285 181.30692035 41.72285625 183.41647119 40 186.125 C38.30329901 188.80872417 37.00743074 190.97770778 36 194 C35.34 194 34.68 194 34 194 C33.88785156 194.72574219 33.77570312 195.45148438 33.66015625 196.19921875 C32.97038613 199.12563993 31.94489186 201.22287809 30.4375 203.8125 C29.98246094 204.60269531 29.52742187 205.39289063 29.05859375 206.20703125 C28.70925781 206.79871094 28.35992188 207.39039063 28 208 C27.34 208 26.68 208 26 208 C25.67 209.65 25.34 211.3 25 213 C24.34 213 23.68 213 23 213 C22.89300781 213.55171875 22.78601563 214.1034375 22.67578125 214.671875 C21.86531933 217.46398658 20.61610491 219.7182951 19.1875 222.25 C16.66400991 226.78012077 14.28363067 231.34490671 12 236 C11.34 236 10.68 236 10 236 C8.92474806 238.65228812 7.90543849 241.28368454 7 244 C6.34 244 5.68 244 5 244 C4.67 245.65 4.34 247.3 4 249 C3.34 249 2.68 249 2 249 C2 249.99 2 250.98 2 252 C1.34 252 0.68 252 0 252 C-0.10699219 252.72316406 -0.21398437 253.44632813 -0.32421875 254.19140625 C-1.056209 257.23360849 -2.16056256 259.29021798 -3.8125 261.9375 C-4.35003906 262.79988281 -4.88757813 263.66226562 -5.44140625 264.55078125 C-5.95574219 265.35902344 -6.47007812 266.16726563 -7 267 C-7.60134766 267.98033203 -7.60134766 267.98033203 -8.21484375 268.98046875 C-9.0831851 270.35998463 -10.03305268 271.68771435 -11 273 C-11.66 273 -12.32 273 -13 273 C-13.09539063 273.88558594 -13.19078125 274.77117187 -13.2890625 275.68359375 C-14.06044473 279.28196468 -15.18193462 281.14303955 -17.375 284.0625 C-19.26497975 286.60794081 -21.02957861 289.05187079 -22.6015625 291.80859375 C-23.06304688 292.53175781 -23.52453125 293.25492188 -24 294 C-24.66 294 -25.32 294 -26 294 C-26.33 295.65 -26.66 297.3 -27 299 C-27.66 299 -28.32 299 -29 299 C-29.226875 299.721875 -29.45375 300.44375 -29.6875 301.1875 C-31.27279974 304.58457087 -33.15923323 306.5749552 -36 309 C-36.99 309 -37.98 309 -39 309 C-39.33 309.99 -39.66 310.98 -40 312 C-48.2964799 317.93301867 -57.67620342 324.13968362 -68 325 C-68 325.66 -68 326.32 -68 327 C-70.41339796 328.00858422 -72.83018675 329.00702673 -75.25 330 C-75.93191406 330.28617188 -76.61382813 330.57234375 -77.31640625 330.8671875 C-80.81415735 332.29345494 -83.16900189 333 -87 333 C-87 333.66 -87 334.32 -87 335 C-88.24663331 335.50833591 -89.49749387 336.00631145 -90.75 336.5 C-91.44609375 336.7784375 -92.1421875 337.056875 -92.859375 337.34375 C-95 338 -95 338 -99 338 C-99 338.66 -99 339.32 -99 340 C-101.64 340.33 -104.28 340.66 -107 341 C-107 341.66 -107 342.32 -107 343 C-115.42857143 346.42857143 -115.42857143 346.42857143 -120 346 C-120 346.66 -120 347.32 -120 348 C-121.10859375 348.40992188 -122.2171875 348.81984375 -123.359375 349.2421875 C-124.82296029 349.78634101 -126.28649955 350.33061835 -127.75 350.875 C-128.47960937 351.14441406 -129.20921875 351.41382813 -129.9609375 351.69140625 C-134.1918243 353.26410357 -134.1918243 353.26410357 -138.265625 355.1953125 C-140 356 -140 356 -144 356 C-144 356.66 -144 357.32 -144 358 C-146.64 358.33 -149.28 358.66 -152 359 C-152 359.66 -152 360.32 -152 361 C-153.24663331 361.50833591 -154.49749387 362.00631145 -155.75 362.5 C-156.44609375 362.7784375 -157.1421875 363.056875 -157.859375 363.34375 C-160 364 -160 364 -164 364 C-164 364.66 -164 365.32 -164 366 C-166.64 366.33 -169.28 366.66 -172 367 C-172 367.66 -172 368.32 -172 369 C-172.80824219 369.25394531 -173.61648438 369.50789063 -174.44921875 369.76953125 C-175.51785156 370.11371094 -176.58648437 370.45789062 -177.6875 370.8125 C-178.74324219 371.14894531 -179.79898437 371.48539063 -180.88671875 371.83203125 C-183.87382647 372.95266514 -186.27775775 374.35896229 -189 376 C-191.02095043 376.78475867 -193.06444423 377.51355883 -195.125 378.1875 C-196.67574219 378.70376953 -196.67574219 378.70376953 -198.2578125 379.23046875 C-201 380 -201 380 -204 380 C-204 380.66 -204 381.32 -204 382 C-205.65 382 -207.3 382 -209 382 C-209 382.66 -209 383.32 -209 384 C-210.74692795 384.67467562 -212.49768525 385.33944156 -214.25 386 C-215.22453125 386.37125 -216.1990625 386.7425 -217.203125 387.125 C-220 388 -220 388 -224 388 C-224 388.66 -224 389.32 -224 390 C-224.71542969 390.21914062 -225.43085938 390.43828125 -226.16796875 390.6640625 C-232.97031801 392.82884635 -239.30654462 395.47820899 -245.74609375 398.546875 C-249.89024598 400.39756483 -254.10929656 401.80043367 -258.44140625 403.140625 C-260.97648684 403.91463749 -260.97648684 403.91463749 -263.08984375 405.109375 C-265 406 -265 406 -269 406 C-269 406.66 -269 407.32 -269 408 C-270.01578125 408.37511719 -271.0315625 408.75023437 -272.078125 409.13671875 C-273.46895001 409.65310746 -274.85955983 410.17007596 -276.25 410.6875 C-276.97348633 410.95643066 -277.69697266 411.22536133 -278.44238281 411.50244141 C-283.88609395 413.54233228 -289.23302332 415.75712488 -294.546875 418.1171875 C-297 419 -297 419 -301 419 C-301 419.66 -301 420.32 -301 421 C-301.81984375 421.26554687 -302.6396875 421.53109375 -303.484375 421.8046875 C-305.10085938 422.33449219 -305.10085938 422.33449219 -306.75 422.875 C-307.81734375 423.22304687 -308.8846875 423.57109375 -309.984375 423.9296875 C-312.90901365 424.88555633 -312.90901365 424.88555633 -315.140625 426.1328125 C-317 427 -317 427 -321 427 C-321 427.66 -321 428.32 -321 429 C-322.65 429 -324.3 429 -326 429 C-326 429.66 -326 430.32 -326 431 C-328.64 431.33 -331.28 431.66 -334 432 C-334 432.66 -334 433.32 -334 434 C-335.66289062 434.61488281 -335.66289062 434.61488281 -337.359375 435.2421875 C-338.82296029 435.78634101 -340.28649955 436.33061835 -341.75 436.875 C-342.47960937 437.14441406 -343.20921875 437.41382813 -343.9609375 437.69140625 C-348.1918243 439.26410357 -348.1918243 439.26410357 -352.265625 441.1953125 C-354 442 -354 442 -358 442 C-358 442.66 -358 443.32 -358 444 C-360.64 444.33 -363.28 444.66 -366 445 C-366 445.66 -366 446.32 -366 447 C-368.64 447.33 -371.28 447.66 -374 448 C-374 448.66 -374 449.32 -374 450 C-375.32 450 -376.64 450 -378 450 C-378 450.66 -378 451.32 -378 452 C-380.64 452.33 -383.28 452.66 -386 453 C-386 453.66 -386 454.32 -386 455 C-387.52367187 455.56267578 -387.52367187 455.56267578 -389.078125 456.13671875 C-390.46895001 456.65310746 -391.85955983 457.17007596 -393.25 457.6875 C-393.97348633 457.95643066 -394.69697266 458.22536133 -395.44238281 458.50244141 C-400.88609395 460.54233228 -406.23302332 462.75712488 -411.546875 465.1171875 C-414 466 -414 466 -418 466 C-418 466.66 -418 467.32 -418 468 C-418.81984375 468.26554687 -419.6396875 468.53109375 -420.484375 468.8046875 C-422.10085938 469.33449219 -422.10085938 469.33449219 -423.75 469.875 C-424.81734375 470.22304687 -425.8846875 470.57109375 -426.984375 470.9296875 C-429.90901365 471.88555633 -429.90901365 471.88555633 -432.140625 473.1328125 C-434 474 -434 474 -438 474 C-438 474.66 -438 475.32 -438 476 C-438.80824219 476.25394531 -439.61648438 476.50789063 -440.44921875 476.76953125 C-441.51785156 477.11371094 -442.58648437 477.45789062 -443.6875 477.8125 C-444.74324219 478.14894531 -445.79898438 478.48539063 -446.88671875 478.83203125 C-449.87382647 479.95266514 -452.27775775 481.35896229 -455 483 C-457.02095043 483.78475867 -459.06444423 484.51355883 -461.125 485.1875 C-462.15882813 485.53167969 -463.19265625 485.87585937 -464.2578125 486.23046875 C-467 487 -467 487 -470 487 C-470 487.66 -470 488.32 -470 489 C-471.65 489 -473.3 489 -475 489 C-475 489.66 -475 490.32 -475 491 C-477.64 491.33 -480.28 491.66 -483 492 C-483 492.66 -483 493.32 -483 494 C-485.64 494.33 -488.28 494.66 -491 495 C-491 495.66 -491 496.32 -491 497 C-492.10859375 497.40992188 -493.2171875 497.81984375 -494.359375 498.2421875 C-495.82296029 498.78634101 -497.28649955 499.33061835 -498.75 499.875 C-499.84441406 500.27912109 -499.84441406 500.27912109 -500.9609375 500.69140625 C-505.1918243 502.26410357 -505.1918243 502.26410357 -509.265625 504.1953125 C-511 505 -511 505 -515 505 C-515 505.66 -515 506.32 -515 507 C-516.24663331 507.50833591 -517.49749387 508.00631145 -518.75 508.5 C-519.79414062 508.91765625 -519.79414062 508.91765625 -520.859375 509.34375 C-523 510 -523 510 -527 510 C-527 510.66 -527 511.32 -527 512 C-529.64 512.33 -532.28 512.66 -535 513 C-535 513.66 -535 514.32 -535 515 C-536.725227 515.67679658 -538.45538939 516.34102 -540.1875 517 C-541.15042969 517.37125 -542.11335937 517.7425 -543.10546875 518.125 C-545.92182358 518.97636772 -548.08164439 519.17072647 -551 519 C-551.42820102 515.36029133 -550.97413512 513.95430537 -549.125 510.6875 C-548.42375 509.800625 -547.7225 508.91375 -547 508 C-546.34 508 -545.68 508 -545 508 C-544.5359375 506.824375 -544.5359375 506.824375 -544.0625 505.625 C-543 503 -543 503 -542 501 C-541.34 501 -540.68 501 -540 501 C-539.88527344 500.42765625 -539.77054688 499.8553125 -539.65234375 499.265625 C-538.93817644 496.78528344 -537.92692128 494.93631303 -536.5625 492.75 C-536.13066406 492.04359375 -535.69882812 491.3371875 -535.25390625 490.609375 C-534.84011719 490.07828125 -534.42632813 489.5471875 -534 489 C-533.34 489 -532.68 489 -532 489 C-531.67 487.68 -531.34 486.36 -531 485 C-530.34 485 -529.68 485 -529 485 C-529 484.01 -529 483.02 -529 482 C-528.34 482 -527.68 482 -527 482 C-526.7421875 481.29488281 -526.484375 480.58976562 -526.21875 479.86328125 C-524.89669814 476.75730685 -523.30252146 474.04021935 -521.5 471.1875 C-520.58734375 469.72376953 -520.58734375 469.72376953 -519.65625 468.23046875 C-519.1096875 467.49441406 -518.563125 466.75835938 -518 466 C-517.34 466 -516.68 466 -516 466 C-515.896875 465.42378906 -515.79375 464.84757812 -515.6875 464.25390625 C-514.88705041 461.62970503 -513.71075441 460.07183062 -512 457.9375 C-510.0569079 455.50396398 -508.9987139 453.99614169 -508 451 C-507.34 451 -506.68 451 -506 451 C-505.690625 450.21625 -505.38125 449.4325 -505.0625 448.625 C-504 446 -504 446 -503 444 C-502.34 444 -501.68 444 -501 444 C-500.64421875 442.98873047 -500.64421875 442.98873047 -500.28125 441.95703125 C-498.68972154 438.28390001 -496.66485917 435.04545248 -494.5 431.6875 C-494.09652344 431.04232422 -493.69304687 430.39714844 -493.27734375 429.73242188 C-492.24154258 428.11718738 -491.12659452 426.55327117 -490 425 C-489.34 425 -488.68 425 -488 425 C-487.88527344 424.41734375 -487.77054688 423.8346875 -487.65234375 423.234375 C-486.95175938 420.83476865 -486.01807405 419.27139067 -484.5625 417.25 C-484.13066406 416.63640625 -483.69882812 416.0228125 -483.25390625 415.390625 C-482.84011719 414.93171875 -482.42632812 414.4728125 -482 414 C-481.34 414 -480.68 414 -480 414 C-479.67 412.35 -479.34 410.7 -479 409 C-478.34 409 -477.68 409 -477 409 C-476.814375 408.13375 -476.814375 408.13375 -476.625 407.25 C-475.99351176 404.97664233 -475.11141809 403.0746471 -474 401 C-473.34 401 -472.68 401 -472 401 C-471.5359375 399.824375 -471.5359375 399.824375 -471.0625 398.625 C-470 396 -470 396 -469 394 C-468.34 394 -467.68 394 -467 394 C-466.88527344 393.42765625 -466.77054687 392.8553125 -466.65234375 392.265625 C-465.93817644 389.78528344 -464.92692128 387.93631303 -463.5625 385.75 C-462.91474609 384.69039062 -462.91474609 384.69039062 -462.25390625 383.609375 C-461.84011719 383.07828125 -461.42632812 382.5471875 -461 382 C-460.34 382 -459.68 382 -459 382 C-458.5359375 380.824375 -458.5359375 380.824375 -458.0625 379.625 C-457 377 -457 377 -456 375 C-455.34 375 -454.68 375 -454 375 C-453.67 373.35 -453.34 371.7 -453 370 C-452.34 370 -451.68 370 -451 370 C-450.814375 369.13375 -450.814375 369.13375 -450.625 368.25 C-449.99351176 365.97664233 -449.11141809 364.0746471 -448 362 C-447.34 362 -446.68 362 -446 362 C-445.5359375 360.824375 -445.5359375 360.824375 -445.0625 359.625 C-444 357 -444 357 -443 355 C-442.34 355 -441.68 355 -441 355 C-440.88914062 354.42378906 -440.77828125 353.84757812 -440.6640625 353.25390625 C-439.9223301 350.73637924 -438.87661652 349.08553433 -437.375 346.9375 C-434.99946693 343.47389304 -432.68834352 339.98368673 -430.4375 336.4375 C-429.85484375 335.52226563 -429.2721875 334.60703125 -428.671875 333.6640625 C-427.60304027 331.96091931 -426.54934571 330.24811889 -425.515625 328.5234375 C-424.39178924 326.6525815 -423.2026669 324.8211813 -422 323 C-421.34 323 -420.68 323 -420 323 C-419.67 321.35 -419.34 319.7 -419 318 C-418.34 318 -417.68 318 -417 318 C-416.814375 317.13375 -416.814375 317.13375 -416.625 316.25 C-415.99351176 313.97664233 -415.11141809 312.0746471 -414 310 C-413.34 310 -412.68 310 -412 310 C-411.82102173 309.13036621 -411.82102173 309.13036621 -411.63842773 308.24316406 C-410.53146466 304.35376569 -408.20367186 301.14944817 -406.0625 297.75 C-405.60681641 297.00492188 -405.15113281 296.25984375 -404.68164062 295.4921875 C-404.24142578 294.78835938 -403.80121094 294.08453125 -403.34765625 293.359375 C-402.94554932 292.71452148 -402.54344238 292.06966797 -402.12915039 291.40527344 C-401.57022095 290.70966309 -401.57022095 290.70966309 -401 290 C-400.34 290 -399.68 290 -399 290 C-398.814375 289.13375 -398.814375 289.13375 -398.625 288.25 C-397.99351176 285.97664233 -397.11141809 284.0746471 -396 282 C-395.34 282 -394.68 282 -394 282 C-393.65388672 281.00226563 -393.65388672 281.00226563 -393.30078125 279.984375 C-391.62784937 276.14617692 -389.446117 272.76652855 -387.1875 269.25 C-383.5976424 263.59200205 -380.16590536 257.90969001 -377 252 C-376.34 252 -375.68 252 -375 252 C-375 251.01 -375 250.02 -375 249 C-374.34 249 -373.68 249 -373 249 C-372.62875 248.01 -372.62875 248.01 -372.25 247 C-370.68182955 243.23639093 -368.85494954 239.6288576 -367 236 C-366.34 236 -365.68 236 -365 236 C-364.690625 235.21625 -364.38125 234.4325 -364.0625 233.625 C-363 231 -363 231 -362 229 C-361.34 229 -360.68 229 -360 229 C-359.67 227.35 -359.34 225.7 -359 224 C-358.34 224 -357.68 224 -357 224 C-356.87625 223.4225 -356.7525 222.845 -356.625 222.25 C-355.99351176 219.97664233 -355.11141809 218.0746471 -354 216 C-353.34 216 -352.68 216 -352 216 C-351.67 214.35 -351.34 212.7 -351 211 C-350.34 211 -349.68 211 -349 211 C-349 210.01 -349 209.02 -349 208 C-348.34 208 -347.68 208 -347 208 C-347 207.34 -347 206.68 -347 206 C-345.86820313 205.93941406 -344.73640625 205.87882812 -343.5703125 205.81640625 C-342.08852855 205.73200083 -340.6067584 205.64735283 -339.125 205.5625 C-338.37863281 205.52318359 -337.63226563 205.48386719 -336.86328125 205.44335938 C-332.80013136 205.28426376 -332.80013136 205.28426376 -329 204 C-325.95298371 203.75563533 -322.92740271 203.57201453 -319.875 203.4375 C-318.95952393 203.3950415 -318.04404785 203.35258301 -317.10083008 203.30883789 C-306.07038501 202.84757317 -295.03751652 202.90632738 -284 203 C-284 202.34 -284 201.68 -284 201 C-283.43845718 200.97716446 -282.87691437 200.95432892 -282.2983551 200.93080139 C-276.47494129 200.69305768 -270.651832 200.4487041 -264.82885742 200.20043945 C-262.65314778 200.10855845 -260.47736531 200.01838619 -258.30151367 199.92993164 C-255.1812722 199.80279228 -252.06134084 199.6695907 -248.94140625 199.53515625 C-247.96224747 199.49656998 -246.98308868 199.4579837 -245.97425842 199.41822815 C-245.07340012 199.37826218 -244.17254181 199.3382962 -243.24438477 199.29711914 C-242.44718521 199.26380997 -241.64998566 199.23050079 -240.82862854 199.19618225 C-238.9823852 199.19159985 -238.9823852 199.19159985 -238 198 C-236.37877577 197.85492735 -234.75180111 197.7728999 -233.125 197.71875 C-231.64773438 197.66267578 -231.64773438 197.66267578 -230.140625 197.60546875 C-227 197.5 -227 197.5 -223.859375 197.39453125 C-222.38210938 197.33845703 -222.38210938 197.33845703 -220.875 197.28125 C-219.96492188 197.25095703 -219.05484375 197.22066406 -218.1171875 197.18945312 C-216.01574568 197.22950241 -216.01574568 197.22950241 -215 196 C-213.62563898 195.8540435 -212.24432004 195.77263301 -210.86328125 195.71875 C-209.54686646 195.66364258 -209.54686646 195.66364258 -208.20385742 195.60742188 C-207.24970947 195.57197266 -206.29556152 195.53652344 -205.3125 195.5 C-204.33966064 195.45939453 -203.36682129 195.41878906 -202.36450195 195.37695312 C-198.18305476 195.20257246 -194.00118757 195.03934664 -189.81933594 194.875 C-186.77522185 194.75380354 -183.73137452 194.62704868 -180.6875 194.5 C-179.73335205 194.46455078 -178.7792041 194.42910156 -177.79614258 194.39257812 C-176.47972778 194.3374707 -176.47972778 194.3374707 -175.13671875 194.28125 C-174.36030029 194.25095703 -173.58388184 194.22066406 -172.78393555 194.18945312 C-170.97703684 194.18652957 -170.97703684 194.18652957 -170 193 C-168.39052528 192.85489109 -166.77525205 192.7728889 -165.16015625 192.71875 C-163.6896582 192.66267578 -163.6896582 192.66267578 -162.18945312 192.60546875 C-161.15755859 192.57066406 -160.12566406 192.53585937 -159.0625 192.5 C-157.03240603 192.43126955 -155.00244198 192.35854979 -152.97265625 192.28125 C-152.06781494 192.25095703 -151.16297363 192.22066406 -150.23071289 192.18945312 C-147.96239102 192.1353283 -147.96239102 192.1353283 -146 191 C-144.40737934 190.84824451 -142.80935144 190.75099675 -141.2109375 190.68359375 C-139.79941406 190.62075195 -139.79941406 190.62075195 -138.359375 190.55664062 C-137.37453125 190.51732422 -136.3896875 190.47800781 -135.375 190.4375 C-133.88613281 190.37272461 -133.88613281 190.37272461 -132.3671875 190.30664062 C-129.91160162 190.20038931 -127.45591297 190.09835036 -125 190 C-125 189.34 -125 188.68 -125 188 C-123.9275 187.566875 -122.855 187.13375 -121.75 186.6875 C-118.82249233 185.44552705 -116.51541059 183.95643046 -114 182 C-113.34 182 -112.68 182 -112 182 C-111.85111328 181.15308594 -111.85111328 181.15308594 -111.69921875 180.2890625 C-110.8520165 177.51554007 -109.53321156 175.70726689 -107.8125 173.375 C-102.24070091 165.61550065 -97.57295421 157.37700462 -93 149 C-92.34 149 -91.68 149 -91 149 C-90.87625 148.4225 -90.7525 147.845 -90.625 147.25 C-89.99351176 144.97664233 -89.11141809 143.0746471 -88 141 C-87.34 141 -86.68 141 -86 141 C-85.83564453 139.90292725 -85.83564453 139.90292725 -85.66796875 138.78369141 C-84.9613412 135.83889339 -83.96329159 133.98424393 -82.3125 131.4609375 C-81.77882813 130.63335938 -81.24515625 129.80578125 -80.6953125 128.953125 C-80.13585937 128.10234375 -79.57640625 127.2515625 -79 126.375 C-77.89303779 124.67629762 -76.78874801 122.97584989 -75.6875 121.2734375 C-75.19636719 120.52497559 -74.70523437 119.77651367 -74.19921875 119.00537109 C-72.85265024 116.91711044 -72.85265024 116.91711044 -72 114 C-71.34 114 -70.68 114 -70 114 C-69.67 112.35 -69.34 110.7 -69 109 C-68.34 109 -67.68 109 -67 109 C-67 108.01 -67 107.02 -67 106 C-66.34 106 -65.68 106 -65 106 C-64.67 104.35 -64.34 102.7 -64 101 C-63.34 101 -62.68 101 -62 101 C-61.87625 100.236875 -61.7525 99.47375 -61.625 98.6875 C-61 96 -61 96 -59 93 C-58.34 93 -57.68 93 -57 93 C-56.85304688 91.93072266 -56.85304688 91.93072266 -56.703125 90.83984375 C-55.88916744 87.55235961 -54.58794619 85.40822761 -52.75 82.5625 C-52.0316626 81.43107594 -51.3157076 80.29813736 -50.6015625 79.1640625 C-50.19711914 78.52243164 -49.79267578 77.88080078 -49.37597656 77.21972656 C-46.55466392 72.66838261 -43.84698709 68.04866678 -41.125 63.4375 C-40.55362305 62.47336182 -39.98224609 61.50922363 -39.39355469 60.51586914 C-38.85375977 59.60184326 -38.31396484 58.68781738 -37.7578125 57.74609375 C-37.2745752 56.92810303 -36.79133789 56.1101123 -36.29345703 55.26733398 C-35.11898728 53.20857586 -34.03558716 51.13135447 -33 49 C-32.34 49 -31.68 49 -31 49 C-29.92474806 46.34771188 -28.90543849 43.71631546 -28 41 C-27.34 41 -26.68 41 -26 41 C-25.67 39.35 -25.34 37.7 -25 36 C-24.34 36 -23.68 36 -23 36 C-22.87625 35.4225 -22.7525 34.845 -22.625 34.25 C-21.99351176 31.97664233 -21.11141809 30.0746471 -20 28 C-19.34 28 -18.68 28 -18 28 C-17.67 26.35 -17.34 24.7 -17 23 C-16.34 23 -15.68 23 -15 23 C-15 22.01 -15 21.02 -15 20 C-14.34 20 -13.68 20 -13 20 C-12.67 18.35 -12.34 16.7 -12 15 C-11.34 15 -10.68 15 -10 15 C-9.67 13.35 -9.34 11.7 -9 10 C-8.34 10 -7.68 10 -7 10 C-7 9.01 -7 8.02 -7 7 C-6.34 7 -5.68 7 -5 7 C-4.731875 6.360625 -4.46375 5.72125 -4.1875 5.0625 C-3 3 -3 3 0 2 C0 1.34 0 0.68 0 0 Z " fill="#307EC0" transform="translate(636,898)"/>
<path d="M0 0 C3.63 0 7.26 0 11 0 C13.46937673 6.2322365 15.3186083 12.51292846 17 19 C19.11503791 15.30344725 20.08053239 11.34276566 21.125 7.25 C21.30675781 6.55261719 21.48851562 5.85523438 21.67578125 5.13671875 C22.12116452 3.42550935 22.56112516 1.71289017 23 0 C26.96 0 30.92 0 35 0 C35.65408879 15.00900159 36.16291161 29.97592964 36 45 C33.36 45 30.72 45 28 45 C27.505 31.14 27.505 31.14 27 17 C25.02 23.93 23.04 30.86 21 38 C19.02 38 17.04 38 15 38 C12.12261914 30.80654785 10.07922362 23.45652609 8 16 C7.67 25.57 7.34 35.14 7 45 C4.36 45 1.72 45 -1 45 C-1.10881621 29.96327361 -1.09819822 15.00217212 0 0 Z " fill="#307EC1" transform="translate(1449,1273)"/>
<path d="M0 0 C9.57 0 19.14 0 29 0 C29 2.31 29 4.62 29 7 C25.37 7 21.74 7 18 7 C18 19.54 18 32.08 18 45 C15.69 45 13.38 45 11 45 C11 32.46 11 19.92 11 7 C7.37 7 3.74 7 0 7 C0 4.69 0 2.38 0 0 Z " fill="#307EC1" transform="translate(1415,1273)"/>
<path d="M0 0 C0.99 0.33 1.98 0.66 3 1 C2.67 1.66 2.34 2.32 2 3 C1.01 3 0.02 3 -1 3 C-1.103125 3.94875 -1.20625 4.8975 -1.3125 5.875 C-2 9 -2 9 -5 11 C-4.54917531 9.53932801 -4.08906463 8.08151968 -3.625 6.625 C-3.36976563 5.81289063 -3.11453125 5.00078125 -2.8515625 4.1640625 C-2 2 -2 2 0 0 Z " fill="#185FBA" transform="translate(634,439)"/>
</svg>
