<?xml version="1.0" encoding="UTF-8"?>
<svg version="1.1" xmlns="http://www.w3.org/2000/svg" width="300" height="100">
<path d="M0 0 C0.99 0.33 1.98 0.66 3 1 C3.495 6.445 3.495 6.445 4 12 C4.33 11.67 4.66 11.34 5 11 C8.4375 11.1875 8.4375 11.1875 12 12 C13.93285487 14.83983111 14.29147462 17.34653754 14.44921875 20.73046875 C14.49240234 21.61541016 14.53558594 22.50035156 14.58007812 23.41210938 C14.61552734 24.32798828 14.65097656 25.24386719 14.6875 26.1875 C14.73455078 27.11498047 14.78160156 28.04246094 14.83007812 28.99804688 C15.05537137 34.04683166 15.05537137 34.04683166 15 36 C14 37 14 37 11 37.125 C8 37 8 37 7 36 C6.91348389 34.58429877 6.89295096 33.164405 6.90234375 31.74609375 C6.90556641 30.89208984 6.90878906 30.03808594 6.91210938 29.15820312 C6.92467773 27.81145508 6.92467773 27.81145508 6.9375 26.4375 C6.94201172 25.53580078 6.94652344 24.63410156 6.95117188 23.70507812 C6.96299775 21.46998686 6.9794778 19.23502563 7 17 C6.01 17.495 6.01 17.495 5 18 C3.79752646 21.60742062 3.92954923 24.87701881 4 28.625 C4.0458188 31.09005131 4.04709385 33.53345945 4 36 C3 37 3 37 0.0625 37.1875 C-3 37 -3 37 -5 35 C-5.515625 35.515625 -6.03125 36.03125 -6.5625 36.5625 C-9 38 -9 38 -12.5 38 C-16.63966218 36.81723938 -17.76608723 35.60862832 -20 32 C-21.28317892 28.15046324 -21.06643637 25.05261865 -21 21 C-22.65 20.67 -24.3 20.34 -26 20 C-25.98839844 21.14339844 -25.97679687 22.28679688 -25.96484375 23.46484375 C-25.95546712 24.95572754 -25.94636679 26.44661309 -25.9375 27.9375 C-25.92912109 28.69224609 -25.92074219 29.44699219 -25.91210938 30.22460938 C-25.90347559 32.14994313 -25.94775667 34.07535581 -26 36 C-26.33 36.33 -26.66 36.66 -27 37 C-29.33333333 37 -31.66666667 37 -34 37 C-34.721875 37.185625 -35.44375 37.37125 -36.1875 37.5625 C-38 38 -38 38 -39.9375 37.5 C-42.06979292 36.80453592 -42.06979292 36.80453592 -44.4375 37.6875 C-47 38 -47 38 -49.8125 36.5625 C-52.44828729 33.47486346 -52.69082377 31.8589605 -52.41796875 27.90625 C-52 26 -52 26 -50.375 23.5 C-47.39901677 21.62043164 -45.45669582 21.68575493 -42 22 C-42 20.35 -42 18.7 -42 17 C-42.99 17 -43.98 17 -45 17 C-45.66 18.32 -46.32 19.64 -47 21 C-48.32 20.67 -49.64 20.34 -51 20 C-50.6875 16.625 -50.6875 16.625 -50 13 C-46.2794164 10.51961093 -44.40203429 10.53662797 -40 11 C-37.63502561 12.86708505 -36.33969285 14.32061431 -35 17 C-34.9283265 19.55157655 -34.90691558 22.07472971 -34.9375 24.625 C-34.94201172 25.33140625 -34.94652344 26.0378125 -34.95117188 26.765625 C-34.96296125 28.51045275 -34.98089676 30.255237 -35 32 C-34.34 32 -33.68 32 -33 32 C-33.04600342 31.43490723 -33.09200684 30.86981445 -33.1394043 30.28759766 C-33.33821167 27.73435427 -33.513127 25.18002337 -33.6875 22.625 C-33.76033203 21.73554687 -33.83316406 20.84609375 -33.90820312 19.9296875 C-33.96298828 19.07890625 -34.01777344 18.228125 -34.07421875 17.3515625 C-34.16062622 16.17327881 -34.16062622 16.17327881 -34.2487793 14.97119141 C-34.16668213 14.32069824 -34.08458496 13.67020508 -34 13 C-31 11 -31 11 -28.625 11.4375 C-27.75875 11.623125 -26.8925 11.80875 -26 12 C-23.27497035 11.62277985 -23.27497035 11.62277985 -21 11 C-20.34 12.32 -19.68 13.64 -19 15 C-17.948125 14.01 -17.948125 14.01 -16.875 13 C-13.49736169 10.65033857 -12.02695637 10.31456062 -8 11 C-5.625 12.5625 -5.625 12.5625 -4 15 C-3.75 18.75 -3.75 18.75 -4 22 C-7.75 23.125 -7.75 23.125 -10 22 C-10 20.35 -10 18.7 -10 17 C-10.99 17 -11.98 17 -13 17 C-13.02696365 18.79158489 -13.04637917 20.58328473 -13.0625 22.375 C-13.07410156 23.37273438 -13.08570313 24.37046875 -13.09765625 25.3984375 C-13.18006602 27.98432453 -13.18006602 27.98432453 -12 30 C-8.04 29.505 -8.04 29.505 -4 29 C-4 20.09 -4 11.18 -4 2 C-2.68 1.34 -1.36 0.68 0 0 Z M-45 27 C-45 28.65 -45 30.3 -45 32 C-44.01 31.67 -43.02 31.34 -42 31 C-42 29.68 -42 28.36 -42 27 C-42.99 27 -43.98 27 -45 27 Z " fill="#FFFFFF" transform="translate(165,31)"/>
<path d="M0 0 C5.18095174 1.72698391 6.75703982 7.19062171 9.25 11.8125 C9.8171875 12.82376953 10.384375 13.83503906 10.96875 14.87695312 C11.49984375 15.85212891 12.0309375 16.82730469 12.578125 17.83203125 C13.06700195 18.72639893 13.55587891 19.6207666 14.05957031 20.54223633 C15 23 15 23 14.87548828 25.13793945 C13.76160449 27.50703919 12.54460405 28.44541877 10.4140625 29.9609375 C9.65689941 30.5084668 8.89973633 31.05599609 8.11962891 31.62011719 C7.29640137 32.19922852 6.47317383 32.77833984 5.625 33.375 C3.89546118 34.61666929 2.16630597 35.85887305 0.4375 37.1015625 C-0.45710938 37.7399707 -1.35171875 38.37837891 -2.2734375 39.03613281 C-4.97564484 40.98245766 -7.64791405 42.96348638 -10.3125 44.9609375 C-11.16150879 45.59596191 -12.01051758 46.23098633 -12.88525391 46.88525391 C-14.51486228 48.10578232 -16.14223521 49.32930252 -17.76708984 50.55615234 C-21.38430217 53.24655675 -24.63780118 55.6444163 -29 57 C-23.37289881 44.70374183 -17.31935908 32.64270912 -11.125 20.625 C-10.55823044 19.52359177 -10.55823044 19.52359177 -9.98001099 18.39993286 C-8.88739944 16.2784516 -7.79199382 14.15844237 -6.6953125 12.0390625 C-6.36745255 11.40323746 -6.03959259 10.76741241 -5.70179749 10.11231995 C-3.91270127 6.66702287 -2.03618273 3.30536935 0 0 Z " fill="#1E6FB5" transform="translate(39,32)"/>
<path d="M0 0 C0.66 0 1.32 0 2 0 C2.34144043 0.65782471 2.68288086 1.31564941 3.03466797 1.9934082 C8.85966318 13.21311003 14.68587176 24.43223119 20.5625 35.625 C20.9548584 36.37434814 21.3472168 37.12369629 21.75146484 37.89575195 C23.52818729 41.27337134 25.34379134 44.60775338 27.27734375 47.8984375 C29 51 29 51 29 53 C25.97801893 52.74389991 23.00584545 52.39021434 20 52 C18.97374512 51.92152832 17.94749023 51.84305664 16.89013672 51.76220703 C11.67115439 51.05757045 8.16322912 50.44106441 4.76147461 46.22680664 C2.86015025 42.60860516 1.29660764 38.98877347 -0.1875 35.1875 C-0.73316541 33.90109177 -1.28326915 32.61655675 -1.83789062 31.33398438 C-3.29691612 27.91535035 -4.68266039 24.47626136 -6 21 C-6.41531982 19.95352295 -6.83063965 18.9070459 -7.25854492 17.82885742 C-8.07712297 14.7057544 -8.02438961 13.86030933 -6.4453125 11.1328125 C-6.07792969 10.47539062 -5.71054687 9.81796875 -5.33203125 9.140625 C-4.93371094 8.47546875 -4.53539062 7.8103125 -4.125 7.125 C-3.73441406 6.43664062 -3.34382813 5.74828125 -2.94140625 5.0390625 C-1.97899042 3.3489664 -0.99186904 1.67298083 0 0 Z " fill="#1F6DB4" transform="translate(50,11)"/>
<path d="M0 0 C2.31 0 4.62 0 7 0 C7 4.29 7 8.58 7 13 C9.31 13 11.62 13 14 13 C14 8.71 14 4.42 14 0 C16.31 0 18.62 0 21 0 C21 10.89 21 21.78 21 33 C18.69 33 16.38 33 14 33 C14 28.38 14 23.76 14 19 C11.69 19 9.38 19 7 19 C7 23.62 7 28.24 7 33 C4.69 33 2.38 33 0 33 C-1.05322058 29.54957827 -1.12911555 26.37056649 -1.1328125 22.7734375 C-1.13410156 21.5771875 -1.13539062 20.3809375 -1.13671875 19.1484375 C-1.13285156 17.90320313 -1.12898438 16.65796875 -1.125 15.375 C-1.12886719 14.12203125 -1.13273437 12.8690625 -1.13671875 11.578125 C-1.13542969 10.38445313 -1.13414063 9.19078125 -1.1328125 7.9609375 C-1.13168457 6.86571777 -1.13055664 5.77049805 -1.12939453 4.64208984 C-1 2 -1 2 0 0 Z " fill="#FFFFFF" transform="translate(91,35)"/>
<path d="M0 0 C2.11925604 2.11925604 1.41831017 6.6196093 1.5625 9.5625 C1.60568359 10.36880859 1.64886719 11.17511719 1.69335938 12.00585938 C1.79975262 14.00368805 1.90040888 16.0018207 2 18 C3.32 17.67 4.64 17.34 6 17 C6 11.72 6 6.44 6 1 C8.73247348 -0.36623674 10.98198902 -0.128426 14 0 C15.65079442 1.65079442 15.22549447 3.63736179 15.31640625 5.91015625 C15.35830078 6.89951172 15.40019531 7.88886719 15.44335938 8.90820312 C15.48267578 9.94912109 15.52199219 10.99003906 15.5625 12.0625 C15.60568359 13.10728516 15.64886719 14.15207031 15.69335938 15.22851562 C15.79981225 17.81886884 15.9018276 20.40932186 16 23 C12.265625 25.046875 12.265625 25.046875 9.875 24.625 C9.25625 24.41875 8.6375 24.2125 8 24 C5.75528846 23.92059282 5.75528846 23.92059282 2.6875 24.8125 C-1 25 -1 25 -3.875 22.8125 C-7.40200367 18.14440691 -7.13258081 13.95349988 -7.0625 8.25 C-7.05798828 7.55261719 -7.05347656 6.85523438 -7.04882812 6.13671875 C-7.0371002 4.42444197 -7.01916653 2.71220967 -7 1 C-4.51588385 -0.24205807 -2.74800896 -0.14092354 0 0 Z " fill="#2860C2" transform="translate(251,44)"/>
<path d="M0 0 C1.79275645 0 3.58500376 -0.08805576 5.375 -0.1875 C9.17000033 0.00879312 10.41286168 0.31335635 13 3 C14.22408898 6.67226693 14.39460795 10.2305381 14.625 14.0625 C14.70234375 15.16174805 14.70234375 15.16174805 14.78125 16.28320312 C15.12287628 21.75424745 15.12287628 21.75424745 14 24 C11.36 24 8.72 24 6 24 C4.7960663 20.24600202 4.90122383 16.66782588 4.9375 12.75 C4.94652344 11.48671875 4.95554688 10.2234375 4.96484375 8.921875 C4.97644531 7.95765625 4.98804688 6.9934375 5 6 C3.68 6 2.36 6 1 6 C1.01160156 7.21558594 1.02320313 8.43117188 1.03515625 9.68359375 C1.04453278 11.26822764 1.05363313 12.85286318 1.0625 14.4375 C1.07087891 15.23994141 1.07925781 16.04238281 1.08789062 16.86914062 C1.0965143 18.91295221 1.0522815 20.95683902 1 23 C0 24 0 24 -3.5 24.125 C-7 24 -7 24 -8 23 C-8.4358918 19.5368481 -8.56289339 16.04679024 -8.75 12.5625 C-8.81832031 11.58216797 -8.88664063 10.60183594 -8.95703125 9.59179688 C-9.00730469 8.65529297 -9.05757812 7.71878906 -9.109375 6.75390625 C-9.16061523 5.89095947 -9.21185547 5.0280127 -9.26464844 4.13891602 C-9.17731445 3.43307373 -9.08998047 2.72723145 -9 2 C-5.53717838 -0.30854775 -4.05093501 -0.17238021 0 0 Z " fill="#285FC0" transform="translate(228,44)"/>
<path d="M0 0 C1.45823212 -0.0270043 2.91660675 -0.04639787 4.375 -0.0625 C5.18710937 -0.07410156 5.99921875 -0.08570313 6.8359375 -0.09765625 C9 0 9 0 11 1 C11.625 4.0625 11.625 4.0625 12 7 C12.99 4.69 13.98 2.38 15 0 C17.31 0 19.62 0 22 0 C22.33 1.65 22.66 3.3 23 5 C22.195625 5.5775 21.39125 6.155 20.5625 6.75 C17.97932447 8.71368859 17.97932447 8.71368859 17.12109375 10.88671875 C16.76961441 13.13154171 16.76961441 13.13154171 18.46875 15.03515625 C19.1390625 15.70417969 19.809375 16.37320313 20.5 17.0625 C22.53125 19.09765625 22.53125 19.09765625 24 21 C23.67 21.99 23.34 22.98 23 24 C19.37 24 15.74 24 12 24 C11.34 21.69 10.68 19.38 10 17 C9.01 19.31 8.02 21.62 7 24 C4.36 24 1.72 24 -1 24 C-0.67966774 20.26279029 -0.13022726 19.12712661 2.625 16.4375 C5.19769411 14.32689276 5.19769411 14.32689276 5.125 12 C3.98755539 9.73988085 3.98755539 9.73988085 1.375 7.5625 C0.59125 6.716875 -0.1925 5.87125 -1 5 C-0.8125 2.1875 -0.8125 2.1875 0 0 Z " fill="#285FC1" transform="translate(269,44)"/>
<path d="M0 0 C1.134375 0.020625 2.26875 0.04125 3.4375 0.0625 C5.32122214 3.23846839 5.63751885 5.38219081 5.4140625 9.046875 C5.3625 9.98144531 5.3109375 10.91601562 5.2578125 11.87890625 C5.19335938 12.84699219 5.12890625 13.81507812 5.0625 14.8125 C5.00578125 15.79605469 4.9490625 16.77960937 4.890625 17.79296875 C4.74942448 20.216911 4.59804205 22.63977459 4.4375 25.0625 C5.04078125 24.918125 5.6440625 24.77375 6.265625 24.625 C7.06484375 24.439375 7.8640625 24.25375 8.6875 24.0625 C9.47640625 23.876875 10.2653125 23.69125 11.078125 23.5 C13.4375 23.0625 13.4375 23.0625 17.4375 23.0625 C18.4375 26.0625 18.4375 26.0625 17.60546875 28.73046875 C15.4375 31.0625 15.4375 31.0625 13.40478516 31.46337891 C10.83653571 31.55626972 8.3169532 31.49705703 5.75 31.375 C4.85732422 31.35244141 3.96464844 31.32988281 3.04492188 31.30664062 C0.84075728 31.24770574 -1.36002672 31.16550818 -3.5625 31.0625 C-4.4168328 27.36180519 -4.69109476 23.93538359 -4.6953125 20.140625 C-4.69660156 19.03332031 -4.69789063 17.92601562 -4.69921875 16.78515625 C-4.69535156 15.63917969 -4.69148437 14.49320313 -4.6875 13.3125 C-4.69136719 12.15105469 -4.69523438 10.98960938 -4.69921875 9.79296875 C-4.69792969 8.69082031 -4.69664062 7.58867188 -4.6953125 6.453125 C-4.69418457 5.44282227 -4.69305664 4.43251953 -4.69189453 3.39160156 C-4.4804798 -0.41386362 -3.96912438 0.06963376 0 0 Z " fill="#285EC0" transform="translate(189.5625,36.9375)"/>
<path d="M0 0 C4.27442469 0.7517384 8.54367827 1.52962098 12.8125 2.3125 C14.63491211 2.63250977 14.63491211 2.63250977 16.49414062 2.95898438 C18.23920898 3.28286133 18.23920898 3.28286133 20.01953125 3.61328125 C21.09307861 3.80704346 22.16662598 4.00080566 23.27270508 4.20043945 C27.78112685 5.52217263 29.27439564 8.1901062 31.48046875 12.16015625 C32.14272461 13.3502832 32.14272461 13.3502832 32.81835938 14.56445312 C33.27017578 15.38880859 33.72199219 16.21316406 34.1875 17.0625 C34.65091797 17.89072266 35.11433594 18.71894531 35.59179688 19.57226562 C39 25.74116348 39 25.74116348 39 28 C34.09341824 26.38987899 30.31968102 23.56210492 26.1875 20.5625 C24.68183565 19.48059241 23.17530218 18.39989349 21.66796875 17.3203125 C20.9001709 16.77020508 20.13237305 16.22009766 19.34130859 15.65332031 C17.0357978 14.0252787 14.70730847 12.43916413 12.36328125 10.8671875 C11.26367065 10.12746704 11.26367065 10.12746704 10.1418457 9.37280273 C8.73690007 8.4313146 7.32799043 7.49570937 5.91479492 6.56665039 C1.11059881 3.33179642 1.11059881 3.33179642 0 0 Z " fill="#235DAA" transform="translate(53,61)"/>
<path d="M0 0 C0.1958691 3.81211903 0.38029565 7.62470534 0.5625 11.4375 C0.61857422 12.52611328 0.67464844 13.61472656 0.73242188 14.73632812 C0.78076172 15.77080078 0.82910156 16.80527344 0.87890625 17.87109375 C0.9260376 18.82943115 0.97316895 19.78776855 1.02172852 20.77514648 C1 23 1 23 0 24 C-2.67058851 24.14115161 -5.32432238 24.04247107 -8 24 C-7.98839844 22.90300781 -7.97679687 21.80601563 -7.96484375 20.67578125 C-7.95546036 19.22135588 -7.94636075 17.76692865 -7.9375 16.3125 C-7.92912109 15.59126953 -7.92074219 14.87003906 -7.91210938 14.12695312 C-7.89446494 10.26282278 -8.22581855 6.77237506 -9 3 C-6.79028126 -0.7695202 -4.0075994 -0.10331667 0 0 Z " fill="#285FC1" transform="translate(217,44)"/>
<path d="M0 0 C0.125 2.375 0.125 2.375 0 5 C-0.66 5.66 -1.32 6.32 -2 7 C-5.625 6.625 -5.625 6.625 -9 6 C-10.125 1.25 -10.125 1.25 -9 -1 C-5.23375329 -2.25541557 -3.62811066 -1.37061958 0 0 Z " fill="#224DA2" transform="translate(218,36)"/>
<path d="M0 0 C2.97 0 5.94 0 9 0 C9 1.98 9 3.96 9 6 C6.36 6 3.72 6 1 6 C0.67 4.02 0.34 2.04 0 0 Z " fill="#2361AC" transform="translate(91,80)"/>
</svg>
