<?xml version="1.0" encoding="UTF-8"?>
<svg version="1.1" xmlns="http://www.w3.org/2000/svg" width="256" height="256">
<path d="M0 0 C0.66 0 1.32 0 2 0 C18.11136414 32.02517336 18.11136414 32.02517336 25.31079102 47.27685547 C27.305368 51.495015 29.33127412 55.68436196 31.484375 59.82421875 C31.86851562 60.56671875 32.25265625 61.30921875 32.6484375 62.07421875 C33.35654653 63.43268323 34.07452702 64.78607206 34.8046875 66.1328125 C37.05991006 70.46321885 37.05991006 70.46321885 36.77539062 73.01245117 C35.84515825 75.39690386 34.85898792 76.30315149 32.859375 77.8828125 C32.20775391 78.40488281 31.55613281 78.92695313 30.88476562 79.46484375 C30.18029297 80.01269531 29.47582031 80.56054688 28.75 81.125 C28.02490234 81.70121094 27.29980469 82.27742188 26.55273438 82.87109375 C21.19790505 87.11170486 15.7756643 91.26508762 10.34375 95.40625 C6.50113119 98.36211063 2.7524869 101.43107807 -1 104.5 C-6.80623873 109.24855577 -12.69106177 113.85853224 -18.65625 118.40625 C-22.49886881 121.36211063 -26.2475131 124.43107807 -30 127.5 C-34.7797448 131.40905125 -39.58945901 135.25632024 -44.5 139 C-49.49274979 142.80666122 -54.38602141 146.71779297 -59.25 150.6875 C-68.84682852 158.5103831 -68.84682852 158.5103831 -72.375 161.3125 C-73.04273438 161.84488281 -73.71046875 162.37726563 -74.3984375 162.92578125 C-76 164 -76 164 -78 164 C-76.6491736 159.66906274 -74.98051601 155.68713163 -72.98046875 151.6171875 C-72.68603882 151.01442993 -72.39160889 150.41167236 -72.08825684 149.79064941 C-71.45495773 148.49437436 -70.82013594 147.1988423 -70.18392944 145.9039917 C-68.46764813 142.40919278 -66.76437816 138.90808091 -65.0625 135.40625 C-64.71620041 134.69383148 -64.36990082 133.98141296 -64.0131073 133.24740601 C-60.82033237 126.66182302 -57.74293647 120.0253263 -54.6875 113.375 C-49.23683708 101.53181598 -43.55446676 89.81171751 -37.8265686 78.10089111 C-32.90334706 68.03032058 -28.06020388 57.93403703 -23.375 47.75 C-18.45004985 37.04624083 -13.38635294 26.41615867 -8.25 15.8125 C-7.89299011 15.07374634 -7.53598022 14.33499268 -7.16815186 13.57385254 C-6.16142932 11.49204436 -5.1516524 9.41175158 -4.140625 7.33203125 C-3.83712128 6.70434341 -3.53361755 6.07665558 -3.22091675 5.4299469 C-1.11549608 1.11549608 -1.11549608 1.11549608 0 0 Z " fill="#1F6FB5" transform="translate(98,74)"/>
<path d="M0 0 C0.66 0 1.32 0 2 0 C8.31174285 12.51543637 14.55273144 25.0578764 20.5715332 37.71704102 C24.67046908 46.33284634 28.83129837 54.91781489 33 63.5 C37.95507078 73.70374232 42.88704588 83.91746316 47.76635742 94.15771484 C50.49629891 99.87851438 53.25028387 105.58721661 56.01953125 111.2890625 C56.5497438 112.38096893 56.5497438 112.38096893 57.09066772 113.49493408 C58.83971888 117.09589552 60.59054106 120.695983 62.34375 124.29492188 C65.42844898 130.63393969 68.48861645 136.98375111 71.48046875 143.3671875 C72.21172974 144.92735596 72.21172974 144.92735596 72.95776367 146.51904297 C74 149 74 149 74 151 C63.70904265 149.16417187 53.47419597 147.15067642 43.27368164 144.86352539 C41.21169816 144.41184971 39.14506595 143.98090986 37.07446289 143.57055664 C20.07922347 140.18333247 20.07922347 140.18333247 15.59619141 135.47583008 C14.2921449 132.71509773 13.38123261 130.04780764 12.61367798 127.0965271 C11.37894305 122.87826389 9.48221714 118.89609538 7.75 114.86328125 C6.97122558 112.98460627 6.19624696 111.10435392 5.42480469 109.22265625 C4.83040588 107.77463623 4.83040588 107.77463623 4.22399902 106.29736328 C3.82007935 105.3123584 3.41615967 104.32735352 3 103.3125 C1.31825698 99.21461831 -0.36410339 95.11699065 -2.046875 91.01953125 C-2.46434998 90.00210846 -2.88182495 88.98468567 -3.31195068 87.93643188 C-5.96355315 81.48522432 -8.66079966 75.05516047 -11.390625 68.63671875 C-12.36974333 66.31909242 -13.3475473 64.00091732 -14.32470703 61.6824646 C-14.93696371 60.2383506 -15.55440551 58.79642292 -16.17724609 57.35684204 C-17.03261105 55.37869417 -17.86966261 53.39370378 -18.703125 51.40625 C-19.17395508 50.30603516 -19.64478516 49.20582031 -20.12988281 48.07226562 C-21.78429619 42.23075666 -19.79844528 38.1070838 -17.05078125 32.9296875 C-16.44943359 31.785 -15.84808594 30.6403125 -15.22851562 29.4609375 C-14.59017206 28.26544964 -13.95149897 27.07013767 -13.3125 25.875 C-12.07858211 23.53950873 -10.84550304 21.20357409 -9.61328125 18.8671875 C-9.01209473 17.73120117 -8.4109082 16.59521484 -7.79150391 15.42480469 C-5.12098405 10.31959174 -2.55101431 5.16575972 0 0 Z " fill="#1F6DB4" transform="translate(127,15)"/>
<path d="M0 0 C1.58639282 0.34393799 1.58639282 0.34393799 3.20483398 0.69482422 C4.73924553 1.02392914 6.273851 1.35213055 7.80859375 1.6796875 C9.07079994 1.94916702 9.07079994 1.94916702 10.35850525 2.22409058 C16.45615032 3.50821293 22.56906354 4.661436 28.70230103 5.76202393 C33.32068838 6.60642515 37.92445727 7.5187689 42.52807617 8.43994141 C44.89536215 8.89877987 47.268114 9.33022138 49.64526367 9.73486328 C70.55350868 13.33010169 70.55350868 13.33010169 75.70922852 20.18066406 C77.98141741 23.89536372 79.68104886 27.73518435 81.17323303 31.81942749 C82.45285881 35.19440122 84.13539458 38.3056002 85.8125 41.5 C86.4475923 42.78208607 87.07985295 44.06558649 87.70703125 45.3515625 C89.57271667 49.1521289 91.47651849 52.93255404 93.38671875 56.7109375 C94.29022267 58.5020382 95.19332623 60.29334018 96.09628296 62.0847168 C96.98999685 63.85518354 97.88719124 65.62389197 98.78442383 67.39257812 C99.60269653 69.01969727 99.60269653 69.01969727 100.4375 70.6796875 C100.93121094 71.65663574 101.42492187 72.63358398 101.93359375 73.64013672 C103 76 103 76 103 78 C100.13746643 76.65283182 97.65713196 75.12226944 95.12109375 73.234375 C94.3748877 72.68152832 93.62868164 72.12868164 92.85986328 71.55908203 C92.0604834 70.96208496 91.26110352 70.36508789 90.4375 69.75 C88.71494946 68.47121176 86.99229026 67.19256988 85.26953125 65.9140625 C84.39119629 65.26083008 83.51286133 64.60759766 82.60791016 63.93457031 C80.16516742 62.12252262 77.71552648 60.32046207 75.26171875 58.5234375 C66.0418452 51.76899407 56.91252131 44.9078417 47.83642578 37.96142578 C42.10138131 33.57953466 36.32204041 29.26547227 30.5 25 C23.40633834 19.79128813 16.34045147 14.54711633 9.3125 9.25 C7.9203125 8.21166016 7.9203125 8.21166016 6.5 7.15234375 C5.65050781 6.50910156 4.80101562 5.86585938 3.92578125 5.203125 C2.78749878 4.34702637 2.78749878 4.34702637 1.6262207 3.47363281 C1.08956787 2.98733398 0.55291504 2.50103516 0 2 C0 1.34 0 0.68 0 0 Z " fill="#235CA9" transform="translate(133,160)"/>
<path d="M0 0 C1.28132812 0.10183594 2.56265625 0.20367187 3.8828125 0.30859375 C4.87023437 0.39238281 5.85765625 0.47617188 6.875 0.5625 C6.875 3.2025 6.875 5.8425 6.875 8.5625 C3.905 8.5625 0.935 8.5625 -2.125 8.5625 C-2.455 6.9125 -2.785 5.2625 -3.125 3.5625 C-3.455 5.2125 -3.785 6.8625 -4.125 8.5625 C-5.115 8.5625 -6.105 8.5625 -7.125 8.5625 C-7.125 6.9125 -7.125 5.2625 -7.125 3.5625 C-7.785 3.5625 -8.445 3.5625 -9.125 3.5625 C-9.125 2.5725 -9.125 1.5825 -9.125 0.5625 C-6.07230154 -0.96384923 -3.36654311 -0.27544444 0 0 Z " fill="#235CA8" transform="translate(241.125,200.4375)"/>
</svg>
