<?xml version="1.0" encoding="UTF-8"?>
<svg version="1.1" xmlns="http://www.w3.org/2000/svg" width="300" height="100">
<path d="M0 0 C1.14814997 2.29629994 1.30769809 4.07698086 1.5625 6.625 C1.64628906 7.44226562 1.73007813 8.25953125 1.81640625 9.1015625 C1.87699219 9.72804688 1.93757813 10.35453125 2 11 C3.11375 11.103125 4.2275 11.20625 5.375 11.3125 C7.169375 11.6528125 7.169375 11.6528125 9 12 C11.89544567 16.3431685 11.53855605 20.44351028 11.75 25.5625 C11.80542969 26.53380859 11.86085938 27.50511719 11.91796875 28.50585938 C11.98177734 29.89708008 11.98177734 29.89708008 12.046875 31.31640625 C12.10633301 32.59173218 12.10633301 32.59173218 12.16699219 33.89282227 C12 36 12 36 10 38 C7.375 37.625 7.375 37.625 5 37 C3.99073521 32.84373632 3.89760421 28.95634906 3.9375 24.6875 C3.94652344 23.43324219 3.95554688 22.17898437 3.96484375 20.88671875 C3.97644531 19.93410156 3.98804688 18.98148438 4 18 C3.34 18 2.68 18 2 18 C1.96241577 18.85549438 1.96241577 18.85549438 1.92407227 19.72827148 C1.80843451 22.29826157 1.68556376 24.86785527 1.5625 27.4375 C1.52318359 28.33533203 1.48386719 29.23316406 1.44335938 30.15820312 C1.38051758 31.43920898 1.38051758 31.43920898 1.31640625 32.74609375 C1.27974854 33.53685303 1.24309082 34.3276123 1.20532227 35.14233398 C1 37 1 37 0 38 C-2.5 38.125 -2.5 38.125 -5 38 C-6.99616554 36.00383446 -6.40983427 32.18298037 -6.5625 29.4375 C-6.60568359 28.72658203 -6.64886719 28.01566406 -6.69335938 27.28320312 C-6.79971777 25.52238088 -6.90038846 23.7612168 -7 22 C-7.61875 22.20625 -8.2375 22.4125 -8.875 22.625 C-9.57625 22.74875 -10.2775 22.8725 -11 23 C-11.66 22.34 -12.32 21.68 -13 21 C-13 19.68 -13 18.36 -13 17 C-14.64570159 18.05630262 -14.64570159 18.05630262 -16 20 C-16.26641894 23.72986522 -16.1845131 26.44646071 -15 30 C-12.69 29.67 -10.38 29.34 -8 29 C-7.25 31.25 -7.25 31.25 -7 34 C-8.5625 36.3125 -8.5625 36.3125 -11 38 C-14.73606516 38.63592598 -16.45019568 38.31238882 -19.75 36.4375 C-23.32133876 32.56854968 -23.93725446 28.72550229 -24.125 23.5625 C-24.08375 22.716875 -24.0425 21.87125 -24 21 C-25.65 21.33 -27.3 21.66 -29 22 C-28.98839844 23.07121094 -28.97679687 24.14242187 -28.96484375 25.24609375 C-28.95546701 26.64322743 -28.94636669 28.04036299 -28.9375 29.4375 C-28.92912109 30.14455078 -28.92074219 30.85160156 -28.91210938 31.58007812 C-28.90346412 33.38693559 -28.94779989 35.19387603 -29 37 C-30 38 -30 38 -32.375 38.0625 C-33.24125 38.041875 -34.1075 38.02125 -35 38 C-35.99 38 -36.98 38 -38 38 C-39.36125 37.7215625 -39.36125 37.7215625 -40.75 37.4375 C-44.07245876 36.81611899 -44.07245876 36.81611899 -47.625 37.6875 C-51 38 -51 38 -53.4375 36.5 C-55.60171993 33.03724812 -55.63403837 31.01557635 -55 27 C-52.8125 24.0625 -52.8125 24.0625 -50 22 C-47.1875 21.6875 -47.1875 21.6875 -45 22 C-45 20.35 -45 18.7 -45 17 C-45.99 17 -46.98 17 -48 17 C-48.66 18.32 -49.32 19.64 -50 21 C-51.32 20.67 -52.64 20.34 -54 20 C-53.6875 16.625 -53.6875 16.625 -53 13 C-49.28986601 10.52657734 -47.38939738 10.61496514 -43 11 C-39.8149643 12.76015131 -39.16703028 13.49890916 -38 17 C-37.77281504 19.56634861 -37.58391816 22.11678107 -37.4375 24.6875 C-37.39431641 25.38939453 -37.35113281 26.09128906 -37.30664062 26.81445312 C-37.2008264 28.54275206 -37.09993419 30.2713511 -37 32 C-37.01571045 31.43490723 -37.0314209 30.86981445 -37.04760742 30.28759766 C-37.10987045 27.73349977 -37.14896136 25.17956129 -37.1875 22.625 C-37.21263672 21.73554687 -37.23777344 20.84609375 -37.26367188 19.9296875 C-37.27333984 19.07890625 -37.28300781 18.228125 -37.29296875 17.3515625 C-37.3086792 16.56604004 -37.32438965 15.78051758 -37.34057617 14.97119141 C-37.22818604 14.32069824 -37.1157959 13.67020508 -37 13 C-34 11 -34 11 -31.625 11.4375 C-30.75875 11.623125 -29.8925 11.80875 -29 12 C-26.27497035 11.62277985 -26.27497035 11.62277985 -24 11 C-23.34 12.32 -22.68 13.64 -22 15 C-20.948125 14.01 -20.948125 14.01 -19.875 13 C-16.49736169 10.65033857 -15.02695637 10.31456062 -11 11 C-8.81640625 13.03125 -8.81640625 13.03125 -7 15 C-7.05220703 13.62714844 -7.05220703 13.62714844 -7.10546875 12.2265625 C-7.13253906 11.03804687 -7.15960938 9.84953125 -7.1875 8.625 C-7.22230469 7.44164062 -7.25710937 6.25828125 -7.29296875 5.0390625 C-7.19628906 4.03617188 -7.09960938 3.03328125 -7 2 C-4 0 -4 0 0 0 Z M-23 16 C-22 18 -22 18 -22 18 Z M-47 27 C-47.33 28.65 -47.66 30.3 -48 32 C-47.01 31.67 -46.02 31.34 -45 31 C-45 29.68 -45 28.36 -45 27 C-45.66 27 -46.32 27 -47 27 Z " fill="#000000" transform="translate(168,31)"/>
<path d="M0 0 C5.28047828 1.76015943 6.8514885 7.57583709 9.3125 12.3125 C9.88806641 13.37146484 10.46363281 14.43042969 11.05664062 15.52148438 C11.59095703 16.54177734 12.12527344 17.56207031 12.67578125 18.61328125 C13.16989502 19.54954346 13.66400879 20.48580566 14.1730957 21.45043945 C15 24 15 24 14.30712891 26.20629883 C12.35503466 28.8850505 9.77591663 30.54597304 7.0625 32.375 C5.80091559 33.24962008 4.54056877 34.12602713 3.28125 35.00390625 C2.59804688 35.47844238 1.91484375 35.95297852 1.2109375 36.44189453 C-2.88822546 39.33068185 -6.90833472 42.32726374 -10.9375 45.3125 C-13.95492724 47.54633536 -16.97608422 49.77495928 -20 52 C-20.67691895 52.50450684 -21.35383789 53.00901367 -22.05126953 53.52880859 C-26.77428603 57 -26.77428603 57 -29 57 C-27.67107589 52.70445532 -26.01549989 48.83260258 -23.9453125 44.84375 C-23.49834267 43.97921455 -23.49834267 43.97921455 -23.04234314 43.09721375 C-22.07451704 41.22903338 -21.10005744 39.3644149 -20.125 37.5 C-19.4535755 36.20880219 -18.78227126 34.91754184 -18.11108398 33.6262207 C-12.2278416 22.33387143 -6.16856789 11.13900003 0 0 Z " fill="#1E6EB5" transform="translate(39,32)"/>
<path d="M0 0 C0.66 0 1.32 0 2 0 C2.4626123 0.90016846 2.92522461 1.80033691 3.40185547 2.7277832 C5.55842494 6.92327828 7.71653309 11.11798085 9.875 15.3125 C10.26138641 16.06354004 10.64777283 16.81458008 11.04586792 17.58837891 C16.07699994 27.36499332 21.12748231 37.12975975 26.30615234 46.8293457 C29 51.89713916 29 51.89713916 29 53 C25.97739683 52.74384719 23.00571001 52.39635736 20 52 C18.9171875 51.896875 17.834375 51.79375 16.71875 51.6875 C8.23079135 50.44156112 8.23079135 50.44156112 5.15234375 46.8359375 C3.86326136 44.28649879 2.8003337 41.72984739 1.81445312 39.05029297 C0.85175222 36.62680309 -0.27276249 34.31342475 -1.421875 31.97265625 C-2.28167729 30.19031023 -3.14105127 28.40775753 -4 26.625 C-4.42313477 25.76914307 -4.84626953 24.91328613 -5.28222656 24.03149414 C-8.14621963 17.85260461 -8.14621963 17.85260461 -7.4453125 13.765625 C-6.96835937 12.85296875 -6.49140625 11.9403125 -6 11 C-5.50242188 10.01257812 -5.00484375 9.02515625 -4.4921875 8.0078125 C-3.95851563 7.05648438 -3.42484375 6.10515625 -2.875 5.125 C-2.06675781 3.67480469 -2.06675781 3.67480469 -1.2421875 2.1953125 C-0.83226562 1.47085937 -0.42234375 0.74640625 0 0 Z " fill="#1E6CB4" transform="translate(50,11)"/>
<path d="M0 0 C1.51421001 1.51421001 1.21309856 2.92472768 1.31640625 5.03515625 C1.37924805 6.24848633 1.37924805 6.24848633 1.44335938 7.48632812 C1.48267578 8.33646484 1.52199219 9.18660156 1.5625 10.0625 C1.60568359 10.91650391 1.64886719 11.77050781 1.69335938 12.65039062 C1.79976702 14.76672037 1.90041731 16.88333813 2 19 C3.32 19 4.64 19 6 19 C5.97679687 17.79601562 5.95359375 16.59203125 5.9296875 15.3515625 C5.91093137 13.77604785 5.89273101 12.20052652 5.875 10.625 C5.85824219 9.8309375 5.84148437 9.036875 5.82421875 8.21875 C5.80664527 6.14507985 5.89664832 4.07116759 6 2 C8 0 8 0 11.0625 -0.1875 C14 0 14 0 15 1 C15.15620555 2.41327947 15.25056173 3.8335459 15.31640625 5.25390625 C15.35830078 6.10791016 15.40019531 6.96191406 15.44335938 7.84179688 C15.48267578 8.73962891 15.52199219 9.63746094 15.5625 10.5625 C15.60568359 11.46419922 15.64886719 12.36589844 15.69335938 13.29492188 C15.79977984 15.52975156 15.90042481 17.76485486 16 20 C18.64 17.69 21.28 15.38 24 13 C21.1204024 8.42251491 21.1204024 8.42251491 17 5 C17 3.68 17 2.36 17 1 C19.40545638 -0.20272819 20.94996953 -0.10071472 23.625 -0.0625 C24.85089844 -0.04896484 24.85089844 -0.04896484 26.1015625 -0.03515625 C26.72804688 -0.02355469 27.35453125 -0.01195312 28 0 C28.66 2.31 29.32 4.62 30 7 C30.33 7 30.66 7 31 7 C31.66 4.69 32.32 2.38 33 0 C35.31 0 37.62 0 40 0 C40.8125 2.1875 40.8125 2.1875 41 5 C39.37550757 6.70779973 37.70779973 8.37550757 36 10 C36 14.70069146 36.91563627 15.64348653 40 19 C40.66 19.33 41.32 19.66 42 20 C41.625 21.9375 41.625 21.9375 41 24 C38.47946405 25.26026798 37.1457902 24.91874445 34.375 24.5625 C33.55773437 24.46066406 32.74046875 24.35882813 31.8984375 24.25390625 C31.27195312 24.17011719 30.64546875 24.08632812 30 24 C29.505 21.03 29.505 21.03 29 18 C28.34 18 27.68 18 27 18 C26.67 19.98 26.34 21.96 26 24 C20.58461538 25.23076923 20.58461538 25.23076923 17.625 24.0625 C17.08875 23.711875 16.5525 23.36125 16 23 C15.01 23.66 14.02 24.32 13 25 C11.68 25 10.36 25 9 25 C9 24.34 9 23.68 9 23 C8.319375 23.350625 7.63875 23.70125 6.9375 24.0625 C3.1819022 25.26109504 0.79896412 24.98491662 -3 24 C-5.89569403 21.49085061 -6.23661988 19.10769649 -6.51171875 15.453125 C-6.58451343 13.71928798 -6.64265696 11.98478499 -6.6875 10.25 C-6.72166016 9.36183594 -6.75582031 8.47367188 -6.79101562 7.55859375 C-6.87328714 5.37252197 -6.94250172 3.18684049 -7 1 C-4.51588385 -0.24205807 -2.74800896 -0.14092354 0 0 Z " fill="#285FC1" transform="translate(251,44)"/>
<path d="M0 0 C1.06671952 3.20015856 0.94845472 4.88544294 0.5625 8.1875 C0.46066406 9.08855469 0.35882813 9.98960938 0.25390625 10.91796875 C0.12822266 11.94857422 0.12822266 11.94857422 0 13 C2.31 13 4.62 13 7 13 C7 8.71 7 4.42 7 0 C12 -1 12 -1 14 0 C14.02465288 4.68139254 14.04283739 9.36274759 14.05493164 14.04418945 C14.05997157 15.63794614 14.0668035 17.23169819 14.07543945 18.82543945 C14.08751999 21.11150253 14.09323155 23.39750467 14.09765625 25.68359375 C14.10281754 26.40026718 14.10797882 27.11694061 14.11329651 27.85533142 C14.11349263 29.57063672 14.06192007 31.28581266 14 33 C13 34 13 34 10.5 34.125 C8 34 8 34 7 33 C6.92728259 30.64686445 6.91629132 28.29166332 6.9375 25.9375 C6.94652344 24.64714844 6.95554687 23.35679688 6.96484375 22.02734375 C6.97644531 21.02832031 6.98804687 20.02929688 7 19 C4.69 19 2.38 19 0 19 C0.09539062 19.83144531 0.19078125 20.66289063 0.2890625 21.51953125 C0.39992188 22.60621094 0.51078125 23.69289063 0.625 24.8125 C0.74101563 25.89144531 0.85703125 26.97039063 0.9765625 28.08203125 C1 31 1 31 -1 34 C-3.5625 34.25 -3.5625 34.25 -6 34 C-7 33 -7 33 -7.11352539 29.85717773 C-7.11336633 28.46597303 -7.10767506 27.07476239 -7.09765625 25.68359375 C-7.0962413 24.95253922 -7.09482635 24.22148468 -7.09336853 23.46827698 C-7.08775408 21.12464368 -7.07519922 18.78110461 -7.0625 16.4375 C-7.05748686 14.85221492 -7.05292363 13.26692834 -7.04882812 11.68164062 C-7.03777997 7.7877239 -7.02050572 3.89387795 -7 0 C-4.3333581 -1.33332095 -2.83319697 -0.67102033 0 0 Z " fill="#000000" transform="translate(98,35)"/>
<path d="M0 0 C2.65698395 0 5.28414723 -0.26195176 7.9296875 -0.48828125 C10 0 10 0 12.2109375 1.9375 C14.63795927 6.09205255 14.66782155 9.57976851 14.75 14.3125 C14.77964844 15.14845703 14.80929688 15.98441406 14.83984375 16.84570312 C14.91016107 18.89662485 14.95738973 20.94831562 15 23 C9.375 25.125 9.375 25.125 6 24 C4.7937748 20.38132441 4.89183082 17.07493749 4.9375 13.3125 C4.94201172 12.61060547 4.94652344 11.90871094 4.95117188 11.18554688 C4.96293073 9.45699462 4.98086546 7.72848635 5 6 C1.88214887 6.64644661 1.88214887 6.64644661 1 9 C0.9283265 11.55157655 0.90691558 14.07472971 0.9375 16.625 C0.94201172 17.33140625 0.94652344 18.0378125 0.95117188 18.765625 C0.96296125 20.51045275 0.98089676 22.255237 1 24 C-1.8125 24.625 -1.8125 24.625 -5 25 C-5.99 24.34 -6.98 23.68 -8 23 C-8.19684669 20.47976587 -8.23500014 18.19598134 -8.125 15.6875 C-7.99392889 11.22671337 -8.09848235 7.35600566 -9 3 C-6.81060492 -0.73485043 -3.99424282 -0.25495167 0 0 Z " fill="#285EC0" transform="translate(228,44)"/>
<path d="M0 0 C1.134375 0.020625 2.26875 0.04125 3.4375 0.0625 C5.32122214 3.23846839 5.63751885 5.38219081 5.4140625 9.046875 C5.3625 9.98144531 5.3109375 10.91601562 5.2578125 11.87890625 C5.19335938 12.84699219 5.12890625 13.81507812 5.0625 14.8125 C5.00578125 15.79605469 4.9490625 16.77960937 4.890625 17.79296875 C4.74942448 20.216911 4.59804205 22.63977459 4.4375 25.0625 C5.05165771 24.91377441 5.66581543 24.76504883 6.29858398 24.61181641 C7.10626221 24.42280762 7.91394043 24.23379883 8.74609375 24.0390625 C9.54587646 23.84908691 10.34565918 23.65911133 11.16967773 23.46337891 C13.83078806 22.99297917 15.87040553 23.23440501 18.4375 24.0625 C18.09908953 26.56673748 17.7560949 28.55895301 16.39453125 30.7109375 C13.31226024 32.83961169 10.04428329 32.45522205 6.4375 32.375 C5.71304688 32.37822266 4.98859375 32.38144531 4.2421875 32.38476562 C0.4567971 32.34635299 -1.34545894 32.20719404 -4.5625 30.0625 C-4.91894531 27.18920898 -4.91894531 27.18920898 -4.890625 23.55859375 C-4.88546875 22.26115234 -4.8803125 20.96371094 -4.875 19.62695312 C-4.8646875 18.95027588 -4.854375 18.27359863 -4.84375 17.57641602 C-4.81256828 15.50453718 -4.80277769 13.43341842 -4.796875 11.36132812 C-4.70713858 0.08258138 -4.70713858 0.08258138 0 0 Z " fill="#285EC0" transform="translate(189.5625,36.9375)"/>
<path d="M0 0 C2.76040332 0.40422091 5.499232 0.85490976 8.2421875 1.3671875 C10.94899894 1.82301229 13.47542129 2.12257007 16.1953125 2.3203125 C21.90672055 2.93980724 26.90427289 3.58477505 30.83203125 8.11132812 C40 21.7579023 40 21.7579023 40 28 C35.3687608 26.42978938 31.76251189 23.92372018 27.8125 21.125 C23.2430798 17.92247274 18.66034343 14.75663586 13.984375 11.7109375 C13.16348389 11.17452637 12.34259277 10.63811523 11.49682617 10.08544922 C9.89428999 9.04173545 8.28776102 8.00412265 6.67700195 6.97314453 C5.94956787 6.49731934 5.22213379 6.02149414 4.47265625 5.53125 C3.82562744 5.11423828 3.17859863 4.69722656 2.51196289 4.26757812 C1 3 1 3 0 0 Z " fill="#225CAA" transform="translate(52,61)"/>
<path d="M0 0 C0.25408976 3.79043181 0.47403593 7.58208053 0.6875 11.375 C0.76033203 12.45523438 0.83316406 13.53546875 0.90820312 14.6484375 C0.96298828 15.6796875 1.01777344 16.7109375 1.07421875 17.7734375 C1.13182373 18.72653809 1.18942871 19.67963867 1.2487793 20.66162109 C1.16668213 21.43328613 1.08458496 22.20495117 1 23 C-2 25 -2 25 -8 24 C-8 16.41 -8 8.82 -8 1 C-5.29120665 -0.35439668 -2.99066732 -0.06501451 0 0 Z " fill="#285FC1" transform="translate(217,44)"/>
<path d="M0 0 C3.1875 0.875 3.1875 0.875 6 2 C6.125 4.375 6.125 4.375 6 7 C4 9 4 9 1 9.25 C-2 9 -2 9 -4 7 C-3.8125 4.5 -3.8125 4.5 -3 2 C-2.01 1.34 -1.02 0.68 0 0 Z " fill="#214CA2" transform="translate(212,34)"/>
<path d="M0 0 C2.97 0 5.94 0 9 0 C9 1.98 9 3.96 9 6 C6.36 6 3.72 6 1 6 C0.67 4.02 0.34 2.04 0 0 Z " fill="#2260AB" transform="translate(91,80)"/>
</svg>
